<?xml version="1.0" encoding="UTF-8" standalone="no"?>
<!-- Created with Inkscape (http://www.inkscape.org/) -->

<svg
   xmlns:dc="http://purl.org/dc/elements/1.1/"
   xmlns:cc="http://creativecommons.org/ns#"
   xmlns:rdf="http://www.w3.org/1999/02/22-rdf-syntax-ns#"
   xmlns:svg="http://www.w3.org/2000/svg"
   xmlns="http://www.w3.org/2000/svg"
   xmlns:sodipodi="http://sodipodi.sourceforge.net/DTD/sodipodi-0.dtd"
   xmlns:inkscape="http://www.inkscape.org/namespaces/inkscape"
   width="106.38419mm"
   height="107.81433mm"
   viewBox="0 0 376.95186 382.01928"
   id="svg2"
   version="1.1"
   inkscape:version="0.91 r13725"
   sodipodi:docname="be_rational_get_real_inkscape.svg">
  <defs
     id="defs4" />
  <sodipodi:namedview
     id="base"
     pagecolor="#ffffff"
     bordercolor="#666666"
     borderopacity="1.0"
     inkscape:pageopacity="0.0"
     inkscape:pageshadow="2"
     inkscape:zoom="1.979899"
     inkscape:cx="342.02624"
     inkscape:cy="178.53077"
     inkscape:document-units="px"
     inkscape:current-layer="layer1"
     showgrid="false"
     fit-margin-top="2"
     fit-margin-left="2"
     fit-margin-right="2"
     fit-margin-bottom="2"
     inkscape:window-width="1839"
     inkscape:window-height="1050"
     inkscape:window-x="81"
     inkscape:window-y="30"
     inkscape:window-maximized="1" />
  <metadata
     id="metadata7">
    <rdf:RDF>
      <cc:Work
         rdf:about="">
        <dc:format>image/svg+xml</dc:format>
        <dc:type
           rdf:resource="http://purl.org/dc/dcmitype/StillImage" />
        <dc:title></dc:title>
      </cc:Work>
    </rdf:RDF>
  </metadata>
  <g
     inkscape:label="Layer 1"
     inkscape:groupmode="layer"
     id="layer1"
     transform="translate(-272.47263,-293.99813)">
    <path
       style="fill:#000000"
       d="m 524.49997,668.34838 c -3.52421,-1.41982 -4.9996,-3.71785 -4.97461,-7.74833 0.0212,-3.42371 0.84,-5.07456 4.99454,-10.07033 11.08575,-13.33045 17.52292,-31.08882 22.85122,-63.04015 1.09921,-6.59149 2.14038,-14.00953 2.31371,-16.48453 l 0.31514,-4.5 -7,0.26672 c -5.33809,0.20339 -8.43285,0.96477 -13.03522,3.20693 -7.06001,3.43945 -8.96325,5.30659 -14.17434,13.90543 -2.12623,3.50849 -4.2989,6.3278 -4.82815,6.26512 -1.88563,-0.22328 -1.5693,-8.88964 0.5546,-15.19435 3.92086,-11.63887 10.36982,-18.38733 21.48311,-22.48077 4.51376,-1.66259 9.76516,-1.89788 54,-2.41948 34.74192,-0.40966 49.7899,-0.92629 51.7146,-1.77548 1.49303,-0.65873 2.95247,-0.81281 3.24321,-0.34239 0.68541,1.10902 -1.91472,8.45346 -4.43838,12.53683 -2.81472,4.55431 -6.11168,5.69059 -18.23813,6.28569 l -10.71869,0.52601 -0.98447,3.10987 c -3.52189,11.12534 -6.65904,42.58962 -5.75426,57.71267 0.97972,16.37566 5.2696,22.91656 15.00285,22.87524 7.20199,-0.0306 12.23819,-2.65074 18.86675,-9.81572 3.24625,-3.50895 5.97316,-5.70171 6.34415,-5.10144 1.64294,2.65835 -3.68245,13.41388 -10.44624,21.09796 -9.04407,10.2746 -25.26494,14.74334 -35.07686,9.66342 -4.73602,-2.45198 -9.03107,-7.85686 -10.96418,-13.79731 -0.63089,-1.93872 -1.40171,-7.79995 -1.71294,-13.02495 -0.79417,-13.33262 1.93946,-28.38199 10.74949,-59.17888 2.1522,-7.52338 3.9131,-13.93588 3.9131,-14.25 0,-0.87771 -35.8162,-0.67753 -36.36054,0.20322 -0.26321,0.42589 -1.66359,9.07649 -3.11195,19.22356 -3.10591,21.75964 -5.6251,35.2706 -9.50963,51.0021 -3.86981,15.67193 -6.43759,22.08918 -10.80891,27.01304 -3.13092,3.52668 -4.4103,4.23677 -8.20897,4.5562 -2.475,0.20813 -5.175,0.10647 -6,-0.2259 z m -226.36384,-2.62012 c -2.6471,-1.9356 -3.5488,-7.86604 -2.49122,-16.38457 0.51985,-4.18724 5.40126,-25.6639 10.84759,-47.72591 5.44633,-22.06201 10.20024,-41.79549 10.56425,-43.85218 1.2307,-6.95354 -3.38231,-6.09167 -15.68716,2.93093 l -5.71627,4.19149 -1.57668,-2.40631 c -2.18294,-3.33159 -2.11339,-3.54368 2.67333,-8.15081 11.42333,-10.99476 33.53203,-24.32586 40.34274,-24.32586 5.05266,0 6.85152,3.33962 6.10499,11.33405 -0.32126,3.44025 -5.8008,27.35587 -12.17677,53.14585 -6.37597,25.78997 -11.36566,47.48243 -11.0882,48.20548 1.168,3.04376 8.31294,-0.23315 18.41655,-8.44645 4.5835,-3.72596 4.51337,-3.73768 7.33416,1.22558 2.98016,5.24366 -33.7285,31.53549 -44.02985,31.53549 -0.97425,0 -2.5571,-0.57455 -3.51746,-1.27678 z M 569.94952,530.93948 c -7.16245,-9.30814 -14.86011,-22.03739 -17.90101,-29.60201 -1.51061,-3.75784 -3.08657,-7.50743 -3.50213,-8.33243 -0.52985,-1.05189 -3.11426,-1.68757 -8.65099,-2.12785 -25.78698,-2.05061 -45.6879,-10.33167 -61.08775,-25.41949 -6.53983,-6.40733 -8.98757,-9.66807 -12.01072,-16 -4.65141,-12.25626 -5.26875,-18.51282 -2.47112,-30.60369 0.71924,-3.05355 1.4794,-6.12952 2.87467,-8.92702 12.70352,-25.47036 44.40559,-41.21715 82.7995,-41.12748 61.11696,0.14274 103.05841,43.91458 80.37488,83.88259 -8.63514,15.21498 -27.11097,28.21333 -48.07804,33.82449 -5.03032,1.3462 -9.62996,2.93182 -10.22144,3.52359 -1.86317,1.86412 -1.09911,28.19894 1.10903,38.22486 1.05992,4.8125 1.81583,8.75 1.6798,8.75 -0.13604,0 -2.34764,-2.7295 -4.91468,-6.06556 z m -4.62156,-27.68444 c 0.0426,-18.05034 0.6179,-18.97823 13.17201,-21.24385 13.40386,-2.41898 30.19233,-11.66057 38.48377,-21.18425 2.06948,-2.37705 5.36005,-7.64305 7.31238,-11.70223 6.51793,-13.55176 5.53004,-27.41325 -2.84786,-39.95924 -12.09222,-18.10824 -41.98297,-30.25969 -74.94829,-30.46862 -23.31683,-0.14778 -44.25304,6.24708 -58.53369,17.87883 -8.10225,6.59938 -11.04623,10.08207 -14.71852,17.41181 -5.36136,11.70677 -3.76489,24.54175 0.64391,33.49629 6.74391,13.64417 20.05921,24.87658 37.8113,31.89655 8.86624,3.50611 24.34837,6.62471 32.88803,6.62471 6.6692,0 6.89019,0.0807 7.52932,2.75 1.25428,5.23838 11.65288,26.25 12.99107,26.25 0.10387,0 0.20132,-5.2875 0.21657,-11.75 z m -233.06542,10.18461 c -3.65722,-1.98439 -5.76257,-6.33827 -5.76257,-11.91707 0,-6.02425 1.90556,-10.34943 6.2341,-14.14993 9.55502,-8.38942 22.26713,-2.27399 22.07264,10.6185 -0.18543,12.29187 -12.63676,20.8242 -22.54417,15.4485 z m 18.30658,-42.93461 c 10e-4,-0.55 0.66272,-3.7 1.47015,-7 1.87874,-7.6785 2.79938,-25.13389 1.7637,-33.43993 l -0.803,-6.43993 -10,-3.17564 c -20.6231,-6.54915 -36.05459,-14.58656 -46.67212,-24.30893 -33.9307,-31.06999 -14.45516,-73.38524 41.17212,-89.45628 53.84843,-15.55712 118.7053,2.62342 136.25198,38.19388 4.05617,8.22261 5.00811,20.79061 2.21673,29.26642 -7.64482,23.21295 -36.41796,41.77888 -73.46871,47.40584 -5.225,0.79353 -11.75,1.47706 -14.5,1.51896 -7.42999,0.1132 -8.49455,0.8643 -11.1187,7.84468 -3.77453,10.04049 -12.34893,23.66126 -23.09777,36.69171 -1.76906,2.14457 -3.21553,3.44922 -3.21438,2.89922 z m 16.43443,-31.27695 c 2.45954,-4.20162 5.39548,-10.41471 6.52431,-13.80686 1.94281,-5.83813 2.25057,-6.2003 5.76227,-6.78086 2.04041,-0.33732 5.62718,-0.61827 7.97061,-0.62432 7.20421,-0.0186 22.75199,-2.91073 32.13949,-5.97842 22.86518,-7.47199 38.71526,-19.38101 46.29991,-34.78763 2.95051,-5.99334 3.29983,-7.60493 3.29983,-15.22393 0,-11.16466 -2.30748,-16.00534 -12.41952,-26.05395 -6.02571,-5.98791 -9.52895,-8.48853 -17.08048,-12.1921 -19.50485,-9.56594 -38.00549,-13.34259 -61,-12.4523 -43.32422,1.67741 -75.49213,15.67381 -86.24434,37.52531 -2.9092,5.9123 -3.25372,7.52286 -3.23745,15.13421 0.016,7.46032 0.41136,9.35249 3.18498,15.24113 7.55588,16.04179 22.85912,26.56276 52.79681,36.29777 12.46968,4.05484 13.04869,4.365 14.19356,7.60309 0.65645,1.8567 1.21895,8.23987 1.25,14.18483 0.0368,7.0505 0.40967,10.59071 1.07229,10.18119 0.55871,-0.34531 3.02819,-4.06553 5.48773,-8.26716 z"
       id="path3347"
       inkscape:connector-curvature="0"
       sodipodi:nodetypes="ssssscssscssssssscssssssssssscsssssssssscsssssssssssssssccsssssssssssssssccsssssssssscsscssssssssscsssssssssssssssscs" />
    <text
       xml:space="preserve"
       style="font-style:normal;font-variant:normal;font-weight:normal;font-stretch:normal;font-size:30.00000191px;line-height:125%;font-family:'Comic Neue';-inkscape-font-specification:'Comic Neue';letter-spacing:0px;word-spacing:0px;fill:#000000;fill-opacity:1;stroke:none;stroke-width:1px;stroke-linecap:butt;stroke-linejoin:miter;stroke-opacity:1"
       x="297.64465"
       y="373.87805"
       id="text3357"
       sodipodi:linespacing="125%"><tspan
         sodipodi:role="line"
         id="tspan3359"
         x="297.64465"
         y="373.87805">Be rational…</tspan></text>
    <text
       xml:space="preserve"
       style="font-style:normal;font-variant:normal;font-weight:normal;font-stretch:normal;font-size:35.00000381px;line-height:125%;font-family:'Comic Neue';-inkscape-font-specification:'Comic Neue';letter-spacing:0px;word-spacing:0px;fill:#000000;fill-opacity:1;stroke:none;stroke-width:1px;stroke-linecap:butt;stroke-linejoin:miter;stroke-opacity:1"
       x="480.09906"
       y="442.28183"
       id="text3357-7"
       sodipodi:linespacing="125%"><tspan
         sodipodi:role="line"
         id="tspan3359-8"
         x="480.09906"
         y="442.28183">Get real!</tspan></text>
  </g>
</svg>
