<?xml version="1.0" encoding="UTF-8"?>
<!DOCTYPE svg PUBLIC "-//W3C//DTD SVG 1.0//EN" "http://www.w3.org/TR/2001/REC-SVG-20010904/DTD/svg10.dtd">
<svg xmlns="http://www.w3.org/2000/svg" xmlns:xlink="http://www.w3.org/1999/xlink" width="367" height="442">
<title>Aiga bus trans</title>
<g stroke="none" fill="white">
 <path id="main" d="M 86,384 V 414 A 25 25 0 0 1 36,414 V 384 H 6 V 200 L 24,67.66 Q 32,36 67.66,24 Q 143.3,4 183.5,4 Q 223.7,4 299.33,24 Q 341,36 343,67.66  L 361,200 V 384 H 331 V 414 A 25 25 0 0 1 281,414 V 384 Z" fill="black"/>
 <path id="windshield" d="M 70,80 C 67.5,80 52.5,80 50,100 L 37.5,200 Q 35.5,216 51.5,216 H 315.5 S 331.5,216 329.5,200 L 317,100 Q 314.5,80 297,80 Z"/>
 <rect id="sign" x="100" y="37" width="167" height="22" rx="11" ry="11"/>
 <circle id="headlightL" cx="61" cy="302.5" r="25"/>
 <circle id="headlightR" cx="306" cy="302.5" r="25"/>
</g>
</svg>