<?xml version="1.0" encoding="UTF-8" standalone="no"?>
<!-- Created with Inkscape (http://www.inkscape.org/) -->

<svg
   xmlns:dc="http://purl.org/dc/elements/1.1/"
   xmlns:cc="http://creativecommons.org/ns#"
   xmlns:rdf="http://www.w3.org/1999/02/22-rdf-syntax-ns#"
   xmlns:svg="http://www.w3.org/2000/svg"
   xmlns="http://www.w3.org/2000/svg"
   xmlns:sodipodi="http://sodipodi.sourceforge.net/DTD/sodipodi-0.dtd"
   xmlns:inkscape="http://www.inkscape.org/namespaces/inkscape"
   width="20.32mm"
   height="20.32mm"
   viewBox="0 0 71.999999 71.999999"
   id="svg2"
   version="1.1"
   inkscape:version="0.91 r13725"
   sodipodi:docname="beerpoint_inkscape.svg">
  <defs
     id="defs4" />
  <sodipodi:namedview
     id="base"
     pagecolor="#ffffff"
     bordercolor="#666666"
     borderopacity="1.0"
     inkscape:pageopacity="0.0"
     inkscape:pageshadow="2"
     inkscape:zoom="3.959798"
     inkscape:cx="52.823178"
     inkscape:cy="2.4964691"
     inkscape:document-units="px"
     inkscape:current-layer="layer1"
     showgrid="false"
     fit-margin-top="0"
     fit-margin-left="0"
     fit-margin-right="0"
     fit-margin-bottom="0"
     inkscape:window-width="1839"
     inkscape:window-height="1050"
     inkscape:window-x="81"
     inkscape:window-y="30"
     inkscape:window-maximized="1" />
  <metadata
     id="metadata7">
    <rdf:RDF>
      <cc:Work
         rdf:about="">
        <dc:format>image/svg+xml</dc:format>
        <dc:type
           rdf:resource="http://purl.org/dc/dcmitype/StillImage" />
        <dc:title></dc:title>
      </cc:Work>
    </rdf:RDF>
  </metadata>
  <g
     inkscape:label="Layer 1"
     inkscape:groupmode="layer"
     id="layer1"
     transform="translate(-412.57144,-582.07654)">
    <path
       style="fill:#000000"
       d="m 438.75139,651.17385 c -2.92602,-1.01057 -5.85102,-2.36733 -6.5,-3.01501 -0.80416,-0.80256 -1.27912,-7.45236 -1.49134,-20.87995 -0.27334,-17.29496 -0.5314,-19.94673 -2.11197,-21.70235 -2.75886,-3.06442 -3.20063,-6.56438 -1.42001,-11.25 1.10301,-2.90249 2.20613,-4.25 3.47923,-4.25 1.02528,0 1.86414,-0.40812 1.86414,-0.90693 0,-0.49881 2.46485,-1.68222 5.47744,-2.62979 4.81998,-1.51607 5.75021,-1.54986 7.75,-0.28151 1.67453,1.06206 2.97104,1.18586 4.92682,0.47042 1.95721,-0.71595 3.53291,-0.56437 6,0.57721 1.84016,0.85147 4.35824,1.85351 5.59574,2.22676 1.2375,0.37324 2.25,1.38944 2.25,2.25824 0,0.86879 1.6388,3.57955 3.64177,6.02392 3.20339,3.90931 3.73859,5.36624 4.44608,12.10299 2.17071,20.6696 0.47741,29.36314 -5.83785,29.97205 -3.03848,0.29296 -3.25,0.55948 -3.25,4.09501 0,4.63708 -1.98402,6.61974 -8.01477,8.00929 -6.43378,1.48242 -10.7475,1.27184 -16.80528,-0.82035 z m 11.4906,-1.68116 c 0.48935,-1.27522 0.77253,-1.32393 1.4533,-0.25 0.57741,0.91089 0.85038,0.44098 0.86084,-1.48189 0.0183,-3.36422 1.6328,-6.68426 3.25049,-6.68426 0.86688,0 0.85788,0.30694 -0.0352,1.2 -0.66,0.66 -1.2,2.73314 -1.2,4.60699 0,2.69588 0.33015,3.2803 1.58179,2.8 0.86998,-0.33384 1.99498,-0.60699 2.5,-0.60699 0.50501,0 0.91821,-0.84856 0.91821,-1.88569 0,-1.03713 0.59999,-3.04218 1.33332,-4.45566 1.46436,-2.82257 1.0458,-9.86468 -0.44638,-7.50996 -0.49785,0.78563 -0.85631,-4.71863 -0.85631,-13.14869 0,-9.72619 0.31914,-14.00616 0.96937,-13 0.75376,1.16636 0.97278,0.88051 0.98469,-1.28518 0.0137,-2.49394 -0.19778,-2.67114 -2.02246,-1.6946 -1.12078,0.59982 -2.90579,0.81508 -3.96669,0.47836 -1.47129,-0.46697 -2.07645,-0.0244 -2.55079,1.86551 -0.34202,1.36275 -0.40921,3.30081 -0.14931,4.30681 0.26791,1.03699 0.52279,0.42166 0.58856,-1.4209 0.0638,-1.7875 0.566,-3.25 1.116,-3.25 0.61905,0 1,5.33333 1,14 0,8.66667 -0.38095,14 -1,14 -0.58929,0 -1.05407,-4.00443 -1.13164,-9.75 -0.0809,-5.98894 -0.37017,-8.39987 -0.75,-6.25 -0.46416,2.62721 -1.1171,3.5 -2.61836,3.5 -1.74817,0 -2.00978,-0.69254 -2.07764,-5.5 -0.12786,-9.05868 -1.14854,-11.97556 -4.25182,-12.1508 -4.59215,-0.25931 -8.62085,0.29543 -9.92054,1.36603 -1.97361,1.62572 -1.74945,30.12538 0.25,31.78477 0.825,0.68469 1.5,2.38453 1.5,3.77743 0,2.45318 0.0615,2.47688 1.96275,0.75628 1.29391,-1.17097 2.5718,-1.51182 3.75,-1.00023 1.65451,0.7184 1.6387,0.80794 -0.21275,1.20564 -2.93943,0.63139 -4.73797,3.26922 -3.36061,4.92884 1.63349,1.96823 3.86061,1.61694 3.86061,-0.60894 0,-3.10488 1.82272,-3.36523 2.28211,-0.32598 0.35525,2.35034 0.44079,2.22649 0.56806,-0.82252 0.11429,-2.73801 0.7192,-3.84891 2.55006,-4.68311 1.32013,-0.60149 2.67013,-0.82372 3,-0.49385 1.19879,1.1988 0.55087,1.92352 -1.65023,1.84584 -1.8955,-0.0669 -2.2989,0.51143 -2.56037,3.6706 -0.26791,3.23708 -0.0243,3.75 1.78139,3.75 1.15046,0 2.36525,-0.71273 2.69953,-1.58385 z m -11.67055,-26.47517 c 0,-10.45136 0.34919,-15.8432 1,-15.44098 0.59681,0.36885 1,6.84372 1,16.05902 0,9.62732 -0.37651,15.44098 -1,15.44098 -0.62515,0 -1,-6.01967 -1,-16.05902 z m 6.73594,11.05902 c -1.09903,-8.41228 -0.90208,-27.80447 0.26406,-26 0.53316,0.825 0.98627,6 1.00692,11.5 0.0364,9.68928 0.0914,9.93005 1.77062,7.74867 l 1.73306,-2.25132 1.34093,3.02936 c 0.73751,1.66615 1.08675,3.69175 0.77608,4.50133 -0.69001,1.79814 -3.21449,1.92789 -4.31859,0.22196 -0.51269,-0.79214 -1.0005,0.21515 -1.33178,2.75 l -0.52275,4 -0.71855,-5.5 z m 5.55675,-3.98875 c -0.28604,-1.09382 -0.91891,-1.74226 -1.40638,-1.44099 -1.41279,0.87315 -1.02512,3.42974 0.52007,3.42974 0.9114,0 1.22334,-0.69995 0.88631,-1.98875 z m -16.63848,-3.26125 c -0.91516,-11.75617 -0.8056,-17.5384 0.34579,-18.25 0.64789,-0.40042 1,4.15628 1,12.94098 0,7.45746 -0.1583,13.55902 -0.35178,13.55902 -0.19348,0 -0.64079,-3.7125 -0.99401,-8.25 z m -0.56954,14.93467 c -0.77956,-0.77956 -1.08467,-0.37205 -1.08467,1.44866 0,3.29728 1.40143,4.70756 1.83467,1.84627 0.18406,-1.21565 -0.15344,-2.69837 -0.75,-3.29493 z m 35.56196,-5.24039 2.55572,-2.55572 -0.71863,-14.69428 c -0.74607,-15.25519 -0.97375,-16.6275 -2.59268,-15.62694 -0.60545,0.37419 -0.71517,5.76376 -0.29158,14.32173 0.70101,14.16274 0.0177,18.11093 -3.13464,18.11093 -1.53151,0 -1.93931,1.19218 -0.79815,2.33333 1.17637,1.17638 2.36566,0.72525 4.97996,-1.88905 z m -2.79333,-5.52261 c 0.61332,-4.20391 -1.00937,-24.92167 -1.95195,-24.92167 -0.49574,0 -0.90135,6.3375 -0.90135,14.08333 0,10.81956 0.28969,13.98794 1.25,13.67167 0.6875,-0.22641 1.40899,-1.50141 1.6033,-2.83333 z m -5.1299,-9.17167 c -0.22183,-1.7875 -0.40333,-0.325 -0.40333,3.25 0,3.575 0.1815,5.0375 0.40333,3.25 0.22182,-1.7875 0.22182,-4.7125 0,-6.5 z m -10.3903,-4.25 0.59842,-4 -1.49096,3.30472 c -0.82002,1.8176 -1.20955,3.76004 -0.86562,4.31653 0.86315,1.39662 1.07173,0.967 1.75816,-3.62125 z m 0.59661,-10.7428 c 0.0751,-2.93137 0.12373,-2.94288 11.82029,-2.79851 3.09136,0.0382 4.2951,-1.19475 2.34388,-2.40067 -0.49837,-0.30801 -0.66701,-1.47436 -0.37477,-2.5919 0.29224,-1.11754 -0.1316,-2.80459 -0.94188,-3.749 -0.81028,-0.94442 -1.7746,-2.56221 -2.14295,-3.59509 -0.53742,-1.50699 -1.34592,-1.76823 -4.0928,-1.32247 -2.69786,0.4378 -3.30703,0.25305 -2.87529,-0.87204 0.66081,-1.72205 -2.81844,-1.95159 -5.75554,-0.3797 -1.48665,0.79563 -2.3304,0.67529 -3.50569,-0.5 -2.13304,-2.13305 -4.68057,-1.93741 -6.18723,0.47515 -1.02079,1.63453 -1.64301,1.81979 -3.24055,0.96482 -1.57048,-0.8405 -1.97718,-0.74237 -1.97718,0.47703 0,0.9816 -0.92578,1.53518 -2.56739,1.53518 -2.11231,0 -2.45487,0.3545 -1.93261,2 0.39251,1.2367 0.1797,2 -0.55761,2 -0.81091,0 -0.9853,1.03547 -0.54507,3.23661 0.82591,4.12957 3.02579,6.45976 4.80249,5.087 1.25886,-0.97265 13.50803,-0.9491 14.48498,0.0278 0.26585,0.26585 0.74288,2.4182 1.06007,4.783 0.45047,3.35849 0.74501,3.86907 1.34563,2.33259 0.42292,-1.08188 0.80057,-3.20131 0.83922,-4.70985 z m -12.92971,-7.87138 c 0,-1.43827 1.81038,-1.89152 4.12911,-1.03376 2.18937,0.8099 2.14055,0.88136 -0.90765,1.32874 -1.7718,0.26005 -3.22146,0.12731 -3.22146,-0.29498 z m 13,-0.88582 c 0,-1.1 0.45,-2 1,-2 0.55,0 1,0.9 1,2 0,1.1 -0.45,2 -1,2 -0.55,0 -1,-0.9 -1,-2 z m -18.65492,-0.54313 c -0.90001,-2.34537 0.0715,-2.62077 1.45125,-0.41139 0.77256,1.23707 0.83891,1.95452 0.18076,1.95452 -0.57192,0 -1.30633,-0.69441 -1.63201,-1.54313 z m 13.15492,-5.45687 c -0.78218,-1.2656 0.54163,-1.2656 2.5,0 1.29269,0.8354 1.26629,0.97149 -0.19098,0.98469 -0.93004,0.008 -1.9691,-0.43469 -2.30902,-0.98469 z"
       id="path3351"
       inkscape:connector-curvature="0" />
  </g>
</svg>
