<?xml version="1.0" encoding="UTF-8" standalone="no"?>
<!-- Created with Inkscape (http://www.inkscape.org/) -->

<svg
   xmlns:dc="http://purl.org/dc/elements/1.1/"
   xmlns:cc="http://creativecommons.org/ns#"
   xmlns:rdf="http://www.w3.org/1999/02/22-rdf-syntax-ns#"
   xmlns:svg="http://www.w3.org/2000/svg"
   xmlns="http://www.w3.org/2000/svg"
   xmlns:sodipodi="http://sodipodi.sourceforge.net/DTD/sodipodi-0.dtd"
   xmlns:inkscape="http://www.inkscape.org/namespaces/inkscape"
   width="557.72339"
   height="200.02023"
   id="svg6224"
   sodipodi:version="0.32"
   inkscape:version="0.91 r13725"
   version="1.0"
   sodipodi:docname="bus_und_bahn_inkscape.svg"
   inkscape:output_extension="org.inkscape.output.svg.inkscape">
  <defs
     id="defs6226">
    <inkscape:perspective
       sodipodi:type="inkscape:persp3d"
       inkscape:vp_x="0 : 526.18109 : 1"
       inkscape:vp_y="0 : 1000 : 0"
       inkscape:vp_z="744.09448 : 526.18109 : 1"
       inkscape:persp3d-origin="372.04724 : 350.78739 : 1"
       id="perspective6232" />
    <inkscape:perspective
       id="perspective6268"
       inkscape:persp3d-origin="372.04724 : 350.78739 : 1"
       inkscape:vp_z="744.09448 : 526.18109 : 1"
       inkscape:vp_y="0 : 1000 : 0"
       inkscape:vp_x="0 : 526.18109 : 1"
       sodipodi:type="inkscape:persp3d" />
    <inkscape:perspective
       id="perspective6292"
       inkscape:persp3d-origin="200 : 120 : 1"
       inkscape:vp_z="400 : 180 : 1"
       inkscape:vp_y="0 : 1000 : 0"
       inkscape:vp_x="0 : 180 : 1"
       sodipodi:type="inkscape:persp3d" />
  </defs>
  <sodipodi:namedview
     id="base"
     pagecolor="#ffffff"
     bordercolor="#666666"
     borderopacity="1.0"
     inkscape:pageopacity="0.0"
     inkscape:pageshadow="2"
     inkscape:zoom="1.5498433"
     inkscape:cx="213.1055"
     inkscape:cy="166.36165"
     inkscape:document-units="px"
     inkscape:current-layer="layer1"
     showgrid="false"
     inkscape:window-width="1839"
     inkscape:window-height="1050"
     inkscape:window-x="81"
     inkscape:window-y="30"
     fit-margin-top="0"
     fit-margin-left="15"
     fit-margin-right="12"
     fit-margin-bottom="0"
     inkscape:window-maximized="1" />
  <metadata
     id="metadata6229">
    <rdf:RDF>
      <cc:Work
         rdf:about="">
        <dc:format>image/svg+xml</dc:format>
        <dc:type
           rdf:resource="http://purl.org/dc/dcmitype/StillImage" />
        <dc:title></dc:title>
      </cc:Work>
    </rdf:RDF>
  </metadata>
  <g
     inkscape:label="Capa 1"
     inkscape:groupmode="layer"
     id="layer1"
     transform="translate(124.98076,-65.855373)">
    <path
       style="fill:#ffffff"
       id="path5417"
       d="m 93.223599,69.922964 c -10.927856,0 -19.811798,8.904179 -19.811798,19.832035 l 0,152.200751 c 0,10.96833 8.883942,19.85227 19.811798,19.85227 l 152.200751,0 c 10.96833,0 19.85227,-8.90418 19.85227,-19.85227 l 0,-152.200751 c 0,-10.948093 -8.90418,-19.832035 -19.85227,-19.832035 l -152.200751,0 z"
       inkscape:connector-curvature="0" />
    <path
       id="path5419"
       d="m 245.42435,265.87561 c 13.19437,0 23.91986,-10.70525 23.91986,-23.91986 l 0,-152.200751 c 0,-13.194374 -10.70525,-23.899626 -23.91986,-23.899626 l -152.200751,0 c -13.194374,0 -23.879389,10.685015 -23.879389,23.899626 l 0,152.200751 c 0,13.19437 10.664778,23.91986 23.879389,23.91986 l 152.200751,0 z"
       inkscape:connector-curvature="0"
       style="fill:#4d4d4d" />
    <g
       id="g6343"
       transform="translate(-0.94964,0)">
      <path
         id="path2251"
         d="m 124.66591,106.93032 c -3.04904,0 -4.53328,2.78044 -5.78125,5.625 -5.08953,13.6098 -10.229,27.20487 -12.09375,42.0625 -0.38497,13.03641 -0.96463,25.97732 -0.8125,39.3125 0,7.88594 8.25942,20 15.1875,20 l 146.90625,0 c 0.94947,0 2.18751,-1.25005 2.1875,-2.25 l -0.0312,-25.3125 c -34.61205,-7.05493 -64.78553,-27.04513 -80.0625,-68.875 -2.20161,-6.27788 -7.44645,-8.13905 -12.28125,-10.5625 l -53.21875,0 z m -0.40625,8.78125 51.4375,0 c 3.34719,0 6.27206,14.03587 8.6875,21.21875 0.76868,2.33426 0.1872,6.0625 -1.4375,6.0625 l -66.90625,0 c -1.53939,0 -2.20856,-3.07112 -1.5625,-5.90625 3.2524,-7.13312 6.99408,-21.375 9.78125,-21.375 z m 71.625,30.84375 c 3.76316,4.05857 7.82339,9.64192 11.3125,12.1875 l 0,24.71875 -10.1875,-5.1875 c -0.96778,-10.43786 -1.06724,-21.07843 -1.125,-31.71875 z m 17.125,17.96875 c 4.20851,3.97601 5.95618,4.72905 9.59375,7.6875 l 0.125,19.0625 -9.71875,-4.5625 c -0.22553,-10.43784 0.0578,-11.54718 0,-22.1875 z m -90.9375,7.21875 c 3.37494,0 6.125,3.02666 6.125,6.78125 0,3.75458 -2.75006,6.8125 -6.125,6.8125 -3.37495,0 -6.09375,-3.05792 -6.09375,-6.8125 1e-5,-3.75459 2.7188,-6.78125 6.09375,-6.78125 z m 50.46875,0 c 3.37493,0 6.125,3.02667 6.125,6.78125 0,3.75458 -2.75007,6.8125 -6.125,6.8125 -3.37496,0 -6.125,-3.05792 -6.125,-6.8125 0,-3.75458 2.75004,-6.78125 6.125,-6.78125 z m 55.0625,3.875 9.5,4.3125 0,15.65625 c -3.48617,-0.4236 -6.71254,-1.3327 -9.5,-3 l 0,-16.96875 z m 13.4375,6.40625 7.5625,2.15625 0,14.1875 c -2.57581,-0.1283 -5.12564,-0.44435 -7.5625,-1.5 l 0,-14.84375 z m 11.4375,3.625 6.1875,1.34375 0,12.78125 c -2.14102,0.15395 -4.18617,-0.18953 -6.1875,-0.8125 l 0,-13.3125 z m 9.5,2.03125 5,0.78125 0,12.78125 -5,-0.9375 0,-12.625 z"
         style="fill:#ffffff;fill-opacity:1;fill-rule:evenodd;stroke:none"
         inkscape:connector-curvature="0" />
      <path
         id="path2253"
         style="fill:#ffffff;fill-opacity:1;fill-rule:evenodd;stroke:none"
         d="m 130.95159,88.380101 c -2.00759,0 -1.94615,4.338232 0,4.338232 l 8.6547,0 c 7.31682,3.288871 11.63606,7.966157 13.64855,14.254227 l 3.32261,0 0,-0.0221 3.28283,0 c 2.01242,-6.28785 6.33218,-10.943249 13.64855,-14.232097 l 8.45574,0 c 2.08701,0 1.77112,-4.338232 0,-4.338232 l -51.01298,0 z m 17.60783,4.338232 15.95649,0 c -3.43998,3.223017 -7.16252,6.501009 -7.16251,11.531757 l -0.77595,0 -0.81573,0 c -1e-5,-5.046502 -3.75336,-8.298898 -7.2023,-11.531757 z"
         inkscape:connector-curvature="0" />
      <path
         id="path2283"
         style="fill:#ffffff;fill-opacity:1;fill-rule:evenodd;stroke:none"
         d="m 105.98156,224.49966 12.69158,0 0,-7.07057 19.12303,0 0,6.98541 28.01683,0 0,-7.0065 104.48085,0 0,7.11273 c -29.44184,1.1965 -59.43462,2.1303 -75.01342,9.93641 l -89.31782,0 0.019,-9.95748 z"
         inkscape:connector-curvature="0" />
    </g>
    <g
       transform="matrix(0.40109933,0,0,0.40109933,-112.38736,74.145847)"
       style="fill:#ffffff;stroke:none"
       id="g6">
      <path
         style="fill:#4d4d4d"
         inkscape:connector-curvature="0"
         id="main"
         d="m 86,384 0,30 a 25,25 0 0 1 -50,0 L 36,384 6,384 6,200 24,67.66 Q 32,36 67.66,24 143.3,4 183.5,4 223.7,4 299.33,24 341,36 343,67.66 l 18,132.34 0,184 -30,0 0,30 a 25,25 0 0 1 -50,0 l 0,-30 z" />
      <path
         inkscape:connector-curvature="0"
         id="windshield"
         d="m 70,80 c -2.5,0 -17.5,0 -20,20 L 37.5,200 q -2,16 14,16 l 264,0 c 0,0 16,0 14,-16 L 317,100 Q 314.5,80 297,80 Z" />
      <rect
         id="sign"
         x="100"
         y="37"
         width="167"
         height="22"
         rx="11"
         ry="11" />
      <circle
         id="headlightL"
         cx="61"
         cy="302.5"
         r="25" />
      <circle
         id="headlightR"
         cx="306"
         cy="302.5"
         r="25" />
    </g>
    <g
       id="g4172"
       transform="matrix(0.38297872,0,0,0.38297872,302.01924,71.012558)">
      <rect
         id="rect4150"
         height="330"
         rx="65"
         width="270"
         y="40"
         x="20"
         style="fill:#4d4d4d;fill-opacity:1" />
      <rect
         id="rect4152"
         rx="30"
         height="100"
         width="200"
         y="100"
         x="55"
         style="fill:#ffffff" />
      <rect
         id="rect4154"
         rx="10"
         height="40"
         width="80"
         y="50"
         x="115"
         style="fill:#ffffff" />
      <circle
         id="circle4156"
         r="15"
         cy="20"
         cx="135"
         style="fill:#4d4d4d;fill-opacity:1" />
      <circle
         id="circle4158"
         r="15"
         cy="20"
         cx="175"
         style="fill:#4d4d4d;fill-opacity:1" />
      <circle
         id="circle4160"
         r="25"
         cy="315"
         cx="85"
         style="fill:#ffffff" />
      <circle
         id="circle4162"
         r="25"
         cy="315"
         cx="225"
         style="fill:#ffffff" />
      <polygon
         id="polygon4164"
         points="45,475 0,475 70,360 240,360 310,475 265,475 220,400 90,400 "
         style="fill:#4d4d4d;fill-opacity:1" />
    </g>
  </g>
</svg>
