<?xml version="1.0" encoding="UTF-8" standalone="no"?>
<!-- Created with Inkscape (http://www.inkscape.org/) -->

<svg
   xmlns:dc="http://purl.org/dc/elements/1.1/"
   xmlns:cc="http://creativecommons.org/ns#"
   xmlns:rdf="http://www.w3.org/1999/02/22-rdf-syntax-ns#"
   xmlns:svg="http://www.w3.org/2000/svg"
   xmlns="http://www.w3.org/2000/svg"
   xmlns:sodipodi="http://sodipodi.sourceforge.net/DTD/sodipodi-0.dtd"
   xmlns:inkscape="http://www.inkscape.org/namespaces/inkscape"
   id="svg2"
   version="1.1"
   inkscape:version="0.48.4 r9939"
   width="706.09595"
   height="144.40865"
   xml:space="preserve"
   sodipodi:docname="cover_schriftzug.svg"><metadata
     id="metadata8"><rdf:RDF><cc:Work
         rdf:about=""><dc:format>image/svg+xml</dc:format><dc:type
           rdf:resource="http://purl.org/dc/dcmitype/StillImage" /><dc:title /></cc:Work></rdf:RDF></metadata><defs
     id="defs6"><clipPath
       clipPathUnits="userSpaceOnUse"
       id="clipPath16"><path
         d="M 0,792 612,792 612,0 0,0 0,792 z"
         id="path18"
         inkscape:connector-curvature="0" /></clipPath><clipPath
       clipPathUnits="userSpaceOnUse"
       id="clipPath24"><path
         d="m 7.96973,817 595.55627,0 0,-841.5 -595.55627,0 0,841.5 z"
         id="path26"
         inkscape:connector-curvature="0" /></clipPath></defs><sodipodi:namedview
     pagecolor="#ffffff"
     bordercolor="#666666"
     borderopacity="1"
     objecttolerance="10"
     gridtolerance="10"
     guidetolerance="10"
     inkscape:pageopacity="0"
     inkscape:pageshadow="2"
     inkscape:window-width="1615"
     inkscape:window-height="1026"
     id="namedview4"
     showgrid="false"
     inkscape:zoom="0.68492304"
     inkscape:cx="353.34747"
     inkscape:cy="48.665646"
     inkscape:window-x="65"
     inkscape:window-y="24"
     inkscape:window-maximized="1"
     inkscape:current-layer="g10"
     fit-margin-left="5"
     fit-margin-right="5"
     fit-margin-top="5"
     fit-margin-bottom="5" /><g
     id="g10"
     inkscape:groupmode="layer"
     inkscape:label="cover"
     transform="matrix(1.25,0,0,-1.25,-27.983908,147.41362)"><g
       id="g28"><g
         clip-path="url(#clipPath24)"
         id="g30"><g
           transform="translate(578.75,60.55)"
           id="g36"><path
             d="M 0,0 C -8.91,0.53 -15.99,-10.91 -18.75,-16.5 -12.31,-11.19 -2.27,-9.48 0,0 M 4.5,3.75 C 4.89,-7.64 -3,-10.75 -9.75,-15 1.43,-15.99 3.12,-36.03 -13.5,-32.25 c 1.99,-4.64 -0.77,-7.27 -0.75,-12 4.32,-2.55 8.24,1.75 12,2.25 -5.63,-16.17 -35.29,-7.13 -19.5,8.25 -0.22,2.78 -3.3,2.7 -2.25,6.75 3.93,-0.07 6.75,-1.25 11.25,-0.75 2.58,2.07 2.13,4.58 0.75,7.5 -16.18,1.43 -17.74,-11.76 -21.75,-22.5 -3.61,0.39 -6.4,1.6 -9.75,2.25 -0.31,1.81 1.37,1.63 0.75,3.75 -4.34,-0.91 -6.51,-3.99 -12.75,-3 -7,13.13 3.95,25.42 9,33.75 l 10.5,0 c -2.51,-9.49 -10.07,-13.93 -11.25,-24.75 1.19,-1.86 5.25,-0.31 6.75,0 6.17,15.33 15.95,27.05 28.5,36 C -6.13,5.12 0.65,5.9 4.5,3.75"
             style="fill:#000000;fill-opacity:1;fill-rule:nonzero;stroke:none"
             id="path38"
             inkscape:connector-curvature="0" /></g><g
           transform="translate(560,44.05)"
           id="g40"><path
             d="M 0,0 C 2.76,5.59 9.84,17.03 18.75,16.5 16.48,7.02 6.44,5.31 0,0"
             style="fill:#ffffff;fill-opacity:1;fill-rule:nonzero;stroke:none"
             id="path42"
             inkscape:connector-curvature="0" /></g><g
           transform="translate(539.75,71.05)"
           id="g52"><path
             d="M 0,0 C 3.31,-0.8 5.54,-4.58 9.75,-2.25 9.25,-10.85 0.03,-13.42 -5.25,-7.5 -3.6,-4.9 -1.29,-2.96 0,0"
             style="fill:#000000;fill-opacity:1;fill-rule:nonzero;stroke:none"
             id="path54"
             inkscape:connector-curvature="0" /></g><g
           transform="translate(428,65.8)"
           id="g60"><path
             d="M 0,0 C 5.41,6.84 12.58,11.92 13.5,23.25 5.75,19.24 0.88,8.37 0,0 m 26.25,-49.5 c 5.6,0 9.75,9.1 8.25,11.25 -3.42,-2.69 -11.15,-4.7 -8.25,-11.25 M 88.5,-5.25 C 87.22,-6.97 87.34,-10.09 86.25,-12 98.21,-28.01 73.1,-48.59 61.5,-33.75 c 1.15,3.6 4.34,5.16 7.5,6.75 1.84,-1.66 1.62,-5.38 3,-7.5 13.15,-1.27 6.62,12.73 5.25,19.5 -9.36,-7.64 -15.89,-18.11 -30,-21 -4.93,-8.32 -8.24,-18.26 -22.5,-17.25 C 13.77,-38.88 38.41,-37.9 40.5,-27 35.72,-32.79 21.87,-36.34 21,-24.75 17.04,-27.5 12.33,-32.79 6.75,-31.5 -4.79,-28.84 6.33,-10.36 9,-3 -2.62,-1.92 -6.5,-14.97 -6.75,-27.75 c -3.1,-0.4 -5.9,-1.1 -9,-1.5 -1.8,22.82 7.93,40.56 17.25,54.75 5.73,0.27 9.32,2.68 14.25,3.75 C 21.78,19.71 11.76,9.46 7.5,3 c 1.93,-1.15 5.12,2.85 9,2.25 1.21,-1.04 2.38,-2.13 3.75,-3 0.35,-11.35 -6.42,-15.58 -7.5,-25.5 12.13,-0.84 11.98,16.99 18,24.75 4.83,-0.58 7.39,1.11 12,0.75 -3.39,-9.36 -9.97,-15.53 -11.25,-27 11.63,-3.2 14.83,14.54 19.5,23.25 4.83,-0.58 7.39,1.11 12,0.75 -4.36,-10.14 -8.86,-20.14 -13.5,-30 11.89,3.37 22.3,14.69 29.25,25.5 1.5,-0.77 6.16,0.5 9.75,0"
             style="fill:#000000;fill-opacity:1;fill-rule:nonzero;stroke:none"
             id="path62"
             inkscape:connector-curvature="0" /></g><g
           transform="translate(462.5,27.55)"
           id="g76"><path
             d="M 0,0 C 1.5,-2.15 -2.65,-11.25 -8.25,-11.25 -11.15,-4.7 -3.42,-2.69 0,0"
             style="fill:#ffffff;fill-opacity:1;fill-rule:nonzero;stroke:none"
             id="path78"
             inkscape:connector-curvature="0" /></g><g
           transform="translate(441.5,89.05)"
           id="g124"><path
             d="M 0,0 C -0.92,-11.33 -8.09,-16.41 -13.5,-23.25 -12.62,-14.88 -7.75,-4.01 0,0"
             style="fill:#ffffff;fill-opacity:1;fill-rule:nonzero;stroke:none"
             id="path126"
             inkscape:connector-curvature="0" /></g><g
           transform="translate(411.5,93.55)"
           id="g232"><path
             d="m 0,0 c 8.5,-8.39 3.59,-28.92 -9.75,-25.5 -1.01,7.5 5.19,7.84 6,13.5 3.67,25.78 -44.73,7.98 -27,-8.25 -3.52,-6.93 -13.2,-5.91 -12,6 C -41.38,-0.66 -13.32,13.14 0,0"
             style="fill:#000000;fill-opacity:1;fill-rule:nonzero;stroke:none"
             id="path234"
             inkscape:connector-curvature="0" /></g><g
           transform="translate(404,88.3)"
           id="g256"><path
             d="m 0,0 c 1.52,-2.43 -3.35,-6.11 -4.5,-9.75 -3.24,-10.28 -2,-24.8 -10.5,-33 -7.37,-7.11 -30.04,-11.03 -30,4.5 2.72,3.03 5.73,5.77 11.25,6 0.54,-4.64 -2.51,-9.91 0.75,-12.75 22.67,2.84 7.22,47.76 33,45"
             style="fill:#000000;fill-opacity:1;fill-rule:nonzero;stroke:none"
             id="path258"
             inkscape:connector-curvature="0" /></g><g
           transform="translate(267.5,74.05)"
           id="g460"><path
             d="M 0,0 C 3.5,6.3 11.6,11.84 9.75,21 2.61,18.39 0.88,6.38 0,0 m 28.5,-15 c 6.14,1.11 9.43,5.07 9.75,12 C 31.66,1.69 28.19,-7.97 28.5,-15 M 65.25,2.25 C 68.09,7.58 71.09,14.78 69,21 63.63,17.62 64.46,8.05 60.75,3 c -0.11,-2.89 0.59,-6.59 -1.5,-7.5 1.57,-0.81 4.14,3.27 6,6.75 M 73.5,-18 c 2.88,-12.12 -22.82,-23.58 -26.25,-7.5 -4.29,-7.18 -24.83,-13.9 -27,0 -3.91,-0.37 -11.11,-2.31 -12.75,1.5 -4.45,-5.05 -7.7,-11.3 -18.75,-9.75 -11.03,16.22 2.83,39.94 7.5,54.75 4.89,2.36 9.09,5.41 17.25,4.5 5.06,-23.94 -24.66,-27.18 -17.25,-51 4.69,-0.94 5.69,1.81 8.25,3 -2.92,9.48 -2.8,25.28 10.5,24.75 5.2,-10.98 -14.93,-28.6 3,-24 1.68,14.47 10.13,27.96 26.25,23.25 5.14,-11.36 -5.34,-18.14 -15,-19.5 -0.52,-4.02 1.95,-5.05 3,-7.5 8.04,-1.29 11.26,2.24 15,5.25 0.23,18.02 7.12,29.38 12,42.75 4.63,0.88 6.99,4.01 13.5,3 6.4,-24.53 -20.46,-33.64 -14.25,-51 0.87,0.12 1.33,-0.17 1.5,-0.75 7.39,-0.14 10.51,3.99 13.5,8.25"
             style="fill:#000000;fill-opacity:1;fill-rule:nonzero;stroke:none"
             id="path462"
             inkscape:connector-curvature="0" /></g><g
           transform="translate(336.5,95.05)"
           id="g472"><path
             d="m 0,0 c 2.09,-6.22 -0.91,-13.42 -3.75,-18.75 -1.86,-3.48 -4.43,-7.56 -6,-6.75 2.09,0.91 1.39,4.61 1.5,7.5 3.71,5.05 2.88,14.62 8.25,18"
             style="fill:#ffffff;fill-opacity:1;fill-rule:nonzero;stroke:none"
             id="path474"
             inkscape:connector-curvature="0" /></g><g
           transform="translate(305.75,71.05)"
           id="g588"><path
             d="M 0,0 C -0.32,-6.93 -3.61,-10.89 -9.75,-12 -10.06,-4.97 -6.59,4.69 0,0"
             style="fill:#ffffff;fill-opacity:1;fill-rule:nonzero;stroke:none"
             id="path590"
             inkscape:connector-curvature="0" /></g><g
           transform="translate(277.25,95.05)"
           id="g672"><path
             d="M 0,0 C 1.85,-9.16 -6.25,-14.7 -9.75,-21 -8.87,-14.62 -7.14,-2.61 0,0"
             style="fill:#ffffff;fill-opacity:1;fill-rule:nonzero;stroke:none"
             id="path674"
             inkscape:connector-curvature="0" /></g><g
           transform="translate(209.75,45.55)"
           id="g780"><path
             d="M 0,0 C 1.94,14.81 3.64,33.86 2.25,49.5 -6.19,41.4 -20.61,0.37 0,0 m -18.75,56.25 c 15.51,3.03 31.54,13.41 46.5,12 C 24.77,62.23 15.44,62.56 9,60 9.37,40.88 7.52,23.98 7.5,5.25 c 6.13,7.12 25.56,44.46 2.25,45 15.52,12.19 15.66,-15.5 12,-27 C 17.23,9.03 6.78,4.04 6,-9 c 7.88,0.12 11.54,4.46 19.5,4.5 0.22,-6.27 -7.57,-6.71 -12,-8.25 -4.82,-1.68 -10.63,-4.17 -15.75,-4.5 -3.33,-2.98 -14.13,-5.44 -18,-3 3.21,6.04 13.22,5.28 19.5,8.25 1.36,0.89 0.59,3.91 1.5,5.25 -24.8,-11.26 -24.6,21.3 -18,37.5 4.2,10.32 9.52,20.02 20.25,22.5 L 3,57 c -5.4,1.46 -18.86,-11.18 -21.75,-0.75"
             style="fill:#000000;fill-opacity:1;fill-rule:nonzero;stroke:none"
             id="path782"
             inkscape:connector-curvature="0" /></g><g
           transform="translate(212,95.05)"
           id="g864"><path
             d="M 0,0 C 1.39,-15.64 -0.31,-34.69 -2.25,-49.5 -22.86,-49.13 -8.44,-8.1 0,0"
             style="fill:#ffffff;fill-opacity:1;fill-rule:nonzero;stroke:none"
             id="path866"
             inkscape:connector-curvature="0" /></g><g
           transform="translate(167,48.55)"
           id="g988"><path
             d="m 0,0 c 4.74,-8.09 -15.11,-24.89 -18,-9.75 -5.52,-2.51 -7.96,-10.04 -14.25,-9.75 -9.9,0.46 -10.73,16.89 -6.75,27 -0.49,2.25 -1.6,-0.72 -3,0 -0.58,3.58 1.17,4.83 0.75,8.25 l 3,0 c 0.72,4.53 1.53,8.97 2.25,13.5 2.94,1.56 7.13,1.87 9.75,3.75 1.92,-4.19 -0.96,-10.03 -1.5,-14.25 1,-1.9 3.33,1.1 5.25,0.75 l 0,-7.5 c -1.76,-0.24 -2.82,-1.18 -5.25,-0.75 -1.11,-5.95 -5.8,-17.15 0,-21 11.72,1.53 8.85,17.66 12,27.75 3.79,0.96 7.35,2.15 11.25,3 -0.82,-8.55 -6.16,-19.32 -3,-27 3.05,-1.27 6.06,3.24 7.5,6"
             style="fill:#000000;fill-opacity:1;fill-rule:nonzero;stroke:none"
             id="path990"
             inkscape:connector-curvature="0" /></g><g
           transform="translate(163.25,85.3)"
           id="g1000"><path
             d="m 0,0 c 2.32,-9.28 -6.03,-12.6 -12,-9 -0.19,3.94 2.49,5.01 2.25,9 3.09,-1.74 6.66,-1.74 9.75,0"
             style="fill:#000000;fill-opacity:1;fill-rule:nonzero;stroke:none"
             id="path1002"
             inkscape:connector-curvature="0" /></g><g
           transform="translate(119.75,47.05)"
           id="g1008"><path
             d="m 0,0 c 3.02,-13.21 -7.87,-24.91 -21.75,-21.75 -2.43,4.67 1.47,7.51 3,10.5 4,-0.25 2.84,-5.66 6.75,-6 10.96,4.04 1.35,16.09 -3,20.25 -6.99,-11.91 -7.8,-26.04 -22.5,-30.75 -6.59,2.48 -5.84,13.89 -3.75,21 -10.47,-7.75 -9.32,-24.99 -22.5,-31.5 -21.25,-10.5 -35.45,16.13 -18,29.25 -26.55,3.45 -1.4,43.35 14.25,28.5 0.24,-3.49 -1.5,-5 -1.5,-8.25 -5.78,1.08 -3.82,6.59 -9.75,6 -7.97,-0.79 -6.49,-15.58 -0.75,-19.5 3.91,-0.41 6.78,0.22 9,1.5 -0.2,-2.2 1.7,-2.3 1.5,-4.5 -2.68,-4.83 -8.53,-3.51 -10.5,-9 -2.56,-7.11 2.09,-16.14 9,-17.25 13.27,-2.13 16.32,11.18 20.25,21 -0.3,2.7 -3.33,2.67 -3.75,5.25 -0.35,4.35 1.25,6.75 1.5,10.5 2.53,0.47 3.85,2.15 7.5,1.5 0.91,-2.59 2.03,-4.97 1.5,-9 6.94,1.31 4.02,12.48 11.25,13.5 0.87,-9.78 -5.77,-22.34 0.75,-28.5 8.2,6.55 12.47,17.03 15,29.25 3.38,1.12 5.17,3.83 9.75,3.75 C -9.87,8.4 -1.16,5.09 0,0"
             style="fill:#000000;fill-opacity:1;fill-rule:nonzero;stroke:none"
             id="path1010"
             inkscape:connector-curvature="0" /></g></g></g></g></svg>