<?xml version="1.0" encoding="UTF-8" standalone="no"?>
<!-- Created with Inkscape (http://www.inkscape.org/) -->
<svg
   xmlns:dc="http://purl.org/dc/elements/1.1/"
   xmlns:cc="http://web.resource.org/cc/"
   xmlns:rdf="http://www.w3.org/1999/02/22-rdf-syntax-ns#"
   xmlns:svg="http://www.w3.org/2000/svg"
   xmlns="http://www.w3.org/2000/svg"
   xmlns:xlink="http://www.w3.org/1999/xlink"
   xmlns:sodipodi="http://sodipodi.sourceforge.net/DTD/sodipodi-0.dtd"
   xmlns:inkscape="http://www.inkscape.org/namespaces/inkscape"
   id="svg2"
   sodipodi:version="0.32"
   inkscape:version="0.44.1"
   width="800"
   height="833"
   version="1.0"
   sodipodi:docbase="/home/asereje/wikipedia/graficos"
   sodipodi:docname="Jordens_inre.svg">
  <metadata
     id="metadata7">
    <rdf:RDF>
      <cc:Work
         rdf:about="">
        <dc:format>image/svg+xml</dc:format>
        <dc:type
           rdf:resource="http://purl.org/dc/dcmitype/StillImage" />
      </cc:Work>
    </rdf:RDF>
  </metadata>
  <defs
     id="defs5">
    <linearGradient
       id="linearGradient3088">
      <stop
         style="stop-color:#27dceb;stop-opacity:1;"
         offset="0"
         id="stop3090" />
      <stop
         style="stop-color:#3084a9;stop-opacity:1;"
         offset="1"
         id="stop3092" />
    </linearGradient>
    <linearGradient
       id="linearGradient3048">
      <stop
         style="stop-color:#fefa98;stop-opacity:1;"
         offset="0"
         id="stop3050" />
      <stop
         style="stop-color:#dcc14e;stop-opacity:1;"
         offset="1"
         id="stop3052" />
    </linearGradient>
    <linearGradient
       id="linearGradient3039">
      <stop
         style="stop-color:#fae072;stop-opacity:1;"
         offset="0"
         id="stop3041" />
      <stop
         style="stop-color:#fae072;stop-opacity:0;"
         offset="1"
         id="stop3043" />
    </linearGradient>
    <linearGradient
       id="linearGradient2987">
      <stop
         style="stop-color:#fae072;stop-opacity:1;"
         offset="0"
         id="stop2989" />
      <stop
         style="stop-color:#fdf98b;stop-opacity:1;"
         offset="1"
         id="stop2991" />
    </linearGradient>
    <linearGradient
       id="linearGradient2971">
      <stop
         style="stop-color:#fdf98b;stop-opacity:1;"
         offset="0"
         id="stop2973" />
      <stop
         style="stop-color:#fae072;stop-opacity:1;"
         offset="1"
         id="stop2975" />
    </linearGradient>
    <linearGradient
       id="linearGradient2930">
      <stop
         style="stop-color:#fceba4;stop-opacity:1;"
         offset="0"
         id="stop2932" />
      <stop
         style="stop-color:#bc610e;stop-opacity:1;"
         offset="1"
         id="stop2934" />
    </linearGradient>
    <linearGradient
       inkscape:collect="always"
       id="linearGradient2902">
      <stop
         style="stop-color:#fae072;stop-opacity:1;"
         offset="0"
         id="stop2904" />
      <stop
         style="stop-color:#fae072;stop-opacity:0;"
         offset="1"
         id="stop2906" />
    </linearGradient>
    <radialGradient
       inkscape:collect="always"
       xlink:href="#linearGradient2902"
       id="radialGradient2908"
       cx="448.91784"
       cy="341.34399"
       fx="448.91784"
       fy="341.34399"
       r="221.73511"
       gradientTransform="matrix(1,0,0,0.873108,0,43.31373)"
       gradientUnits="userSpaceOnUse" />
    <radialGradient
       inkscape:collect="always"
       xlink:href="#linearGradient2971"
       id="radialGradient3029"
       cx="404.88635"
       cy="361.0209"
       fx="404.88635"
       fy="361.0209"
       r="126.96875"
       gradientTransform="matrix(-0.22836,1.027085,-1.295352,-0.287996,970.5146,108.9949)"
       gradientUnits="userSpaceOnUse" />
    <radialGradient
       inkscape:collect="always"
       xlink:href="#linearGradient2971"
       id="radialGradient3037"
       cx="410.84375"
       cy="404.79163"
       fx="410.84375"
       fy="404.79163"
       r="82.119598"
       gradientTransform="matrix(2.586433,-1.376281e-6,1.591106e-6,2.11172,-651.7765,-434.9549)"
       gradientUnits="userSpaceOnUse" />
    <radialGradient
       inkscape:collect="always"
       xlink:href="#linearGradient3048"
       id="radialGradient3066"
       cx="413.4375"
       cy="386.61575"
       fx="413.4375"
       fy="386.61575"
       r="46.21875"
       gradientTransform="matrix(2.225514,-5.79056e-3,1.080524e-2,4.152925,-510.8516,-1182.15)"
       gradientUnits="userSpaceOnUse" />
    <radialGradient
       inkscape:collect="always"
       xlink:href="#linearGradient2930"
       id="radialGradient3084"
       cx="383.12738"
       cy="373.45987"
       fx="383.12738"
       fy="373.45987"
       r="92.942275"
       gradientTransform="matrix(-1.914552,3.403904e-2,-5.298013e-2,-2.979907,1159.335,1521.21)"
       gradientUnits="userSpaceOnUse" />
    <radialGradient
       inkscape:collect="always"
       xlink:href="#linearGradient3088"
       id="radialGradient3102"
       cx="112.59375"
       cy="348.16528"
       fx="112.59375"
       fy="348.16528"
       r="342.96875"
       gradientTransform="matrix(0.991893,1.140955,-1.149465,0.999291,401.1164,-128.2149)"
       gradientUnits="userSpaceOnUse" />
  </defs>
  <sodipodi:namedview
     inkscape:window-height="767"
     inkscape:window-width="1278"
     inkscape:pageshadow="2"
     inkscape:pageopacity="0.0"
     guidetolerance="10.0"
     gridtolerance="10.0"
     objecttolerance="10.0"
     borderopacity="1.0"
     bordercolor="#666666"
     pagecolor="#ffffff"
     id="base"
     inkscape:zoom="0.5"
     inkscape:cx="538.69164"
     inkscape:cy="409.97705"
     inkscape:window-x="0"
     inkscape:window-y="0"
     inkscape:current-layer="svg2"
     showguides="true"
     inkscape:guide-bbox="true">
    <sodipodi:guide
       orientation="vertical"
       position="-97.580736"
       id="guide3331" />
  </sodipodi:namedview>
  <path
     style="fill:url(#radialGradient3102);fill-opacity:1.0;fill-rule:nonzero;stroke:none;stroke-width:2;stroke-miterlimit:4;stroke-dasharray:none;stroke-dashoffset:0;stroke-opacity:1"
     d="M 402.15625,79.21875 C 214.87767,81.593618 63.625001,234.31755 63.625,422.15625 C 63.625,611.47399 217.27602,765.12499 406.59375,765.125 C 595.91149,765.125 749.56251,611.47398 749.5625,422.15625 L 749.5625,421.96875 C 749.45423,232.71999 595.84254,79.218748 406.59375,79.21875 C 405.11471,79.21875 403.63088,79.20005 402.15625,79.21875 z M 413.8125,104.0625 C 430.21373,106.34572 481.79388,123.77984 532.4375,156.3125 C 585.82405,190.60718 629.31745,239.74517 656.1875,285 C 683.05758,330.25483 694.38972,361.35056 702.875,407.3125 C 710.38621,447.9982 711.24477,479.17016 711.34375,485.8125 C 711.35659,486.6739 711.34375,487.21875 711.34375,487.21875 L 710.65625,487.15625 C 708.07643,491.12081 696.10849,503.64923 642.75,520.46875 C 577.69617,540.97485 505.09485,554.39461 442.65625,553.6875 C 359.21966,552.77192 253.27784,550.0481 161.9375,508.4375 C 98.297898,479.44612 91.9375,464.59375 91.9375,464.59375 C 91.9375,464.59374 102.9251,386.60366 113.71875,356.4375 C 125.23957,324.23903 188.87243,184.28697 318.90625,134.375 C 374.97901,112.85213 404.11239,106.13017 413.375,104.375 L 413.8125,104.0625 z "
     id="path2427"
     sodipodi:nodetypes="cssccsccssssccscscsscc" />
  <path
     sodipodi:nodetypes="csccsccssccc"
     id="path2842"
     d="M 361.05382,175.52903 C 274.88248,224.81725 220.66685,342.65003 205.73064,395.69798 C 194.48509,435.63806 189.84395,478.78512 190.73612,493.85261 C 229.01683,518.41143 352.98596,532.63876 416.90491,534.3915 C 476.0374,535.06116 533.72072,530.61004 595.32997,511.18973 C 645.86314,495.2608 666.28409,481.35783 668.7273,477.60319 C 669.62975,477.3904 669.38246,477.6028 669.3784,476.33059 C 669.28466,470.03996 672.81989,462.07253 665.70639,423.54113 C 657.67041,380.01286 647.94526,350.4493 622.9052,307.3515 C 588.0826,247.41643 549.36401,215.24665 505.91153,187.00451 C 473.94014,168.86095 449.00479,153.99577 413.37895,148.19298 C 388.10464,157.84662 384.62563,160.37006 361.05382,175.52903 z "
     style="fill:#faac52;fill-opacity:1;fill-rule:evenodd;stroke:none;stroke-width:0.94705021px;stroke-linecap:butt;stroke-linejoin:miter;stroke-opacity:1" />
  <path
     style="fill:url(#radialGradient3084);fill-opacity:1.0;fill-rule:evenodd;stroke:none;stroke-width:0.94705021px;stroke-linecap:butt;stroke-linejoin:miter;stroke-opacity:1"
     d="M 228.5625 507.125 L 229 508 L 294.40625 474.40625 C 297.90525 393.59134 330.04866 311.0727 392.5 259 C 402.55145 252.08963 407.20151 249.21279 409.4375 247.96875 L 411 247 L 411.40625 247 C 411.72048 247.02438 411.71033 247.07106 411.96875 247.09375 L 413.5 165 L 413.28125 148.875 L 413.25 148.75 C 413.25 148.75 411.18526 149.84611 407.625 151.96875 C 404.06474 154.09139 398.99821 157.23314 393 161.34375 C 390.00089 163.39906 386.77316 165.6917 383.375 168.21875 C 379.97684 170.7458 376.40692 173.51804 372.75 176.5 C 369.09308 179.48196 365.36914 182.67372 361.59375 186.09375 C 357.81836 189.51378 354.00358 193.15873 350.25 197 C 344.70971 202.66973 339.41993 208.44585 334.3125 214.46875 C 329.20507 220.49165 324.27608 226.75582 319.40625 233.40625 C 314.53642 240.05668 309.73373 247.10394 304.90625 254.65625 C 300.07877 262.20856 295.23039 270.27145 290.25 279 C 287.74142 283.39649 285.09844 288.54928 282.375 294.28125 C 279.65156 300.01322 276.84536 306.31824 274.03125 313.03125 C 271.21714 319.74426 268.40558 326.87912 265.625 334.21875 C 262.84442 341.55838 260.09161 349.10693 257.46875 356.71875 C 254.84589 364.33057 252.34094 372.00168 250 379.53125 C 247.65906 387.06082 245.49732 394.43836 243.5625 401.53125 C 241.62768 408.62414 239.90451 415.41696 238.5 421.71875 C 237.09549 428.02054 236 433.84375 235.25 439 C 233.85384 448.59858 232.73834 457.73933 231.84375 466.03125 C 230.94916 474.32317 230.27596 481.77465 229.78125 488.03125 C 228.84686 499.84855 228.59434 506.32406 228.5625 507.125 z "
     id="path2870" />
  <path
     style="fill:#da551a;fill-opacity:1;fill-rule:evenodd;stroke:none;stroke-width:1px;stroke-linecap:butt;stroke-linejoin:miter;stroke-opacity:1"
     d="M 161.84375,501.90625 L 161.75,502.375 C 251.30584,541.99321 353.08836,547.94936 434.59375,548.84375 C 497.03236,549.55086 570.63367,538.1311 635.6875,517.625 C 689.04596,500.80548 697.48268,487.58956 700.0625,483.625 L 700.75,483.6875 C 700.75003,483.68749 700.76284,483.14265 700.75,482.28125 C 700.65105,475.6389 703.32371,457.1857 695.8125,416.5 C 687.32719,370.53807 675.56506,339.69491 649.125,294.1875 C 612.35543,230.90146 574.06942,193.19617 528.1875,163.375 C 494.5026,144.25904 451.49671,120.22509 413.9375,114.03033 L 407.96875,150.34375 C 409.86463,149.59889 411.17676,149.02713 413.375,148.1875 C 449.00084,153.99029 473.93486,168.85643 505.90625,187 C 549.35873,215.24214 588.08364,247.40868 622.90625,307.34375 C 647.94631,350.44155 657.6828,380.00297 665.71875,423.53125 C 672.83225,462.06265 669.28124,470.05311 669.375,476.34375 C 669.37906,477.61596 669.62121,477.38097 668.71875,477.59375 C 666.27554,481.34839 645.87693,495.25857 595.34375,511.1875 C 533.7345,530.60781 476.03874,535.07593 416.90625,534.40625 C 352.9873,532.65351 229.03072,518.40258 190.75,493.84375 C 190.74393,493.74121 190.75556,493.51139 190.75,493.40625 L 161.84375,501.90625 z "
     id="path2860"
     sodipodi:nodetypes="cccsccssscccccssccscccc" />
  <path
     style="fill:#f09542;fill-opacity:1;fill-rule:evenodd;stroke:none;stroke-width:0.94705021px;stroke-linecap:butt;stroke-linejoin:miter;stroke-opacity:1"
     d="M 227.65625 508.6875 L 228.5 508.25 C 228.5 508.25 228.79183 500.54446 229.78125 488.03125 C 230.27596 481.77465 230.94916 474.32317 231.84375 466.03125 C 232.73834 457.73933 233.85384 448.59858 235.25 439 C 236 433.84375 237.09549 428.02054 238.5 421.71875 C 239.90451 415.41696 241.62768 408.62414 243.5625 401.53125 C 245.49732 394.43836 247.65906 387.06082 250 379.53125 C 252.34094 372.00168 254.84589 364.33057 257.46875 356.71875 C 260.09161 349.10693 262.84442 341.55838 265.625 334.21875 C 268.40558 326.87912 271.21714 319.74426 274.03125 313.03125 C 276.84536 306.31824 279.65156 300.01322 282.375 294.28125 C 285.09844 288.54928 287.74142 283.39649 290.25 279 C 295.23039 270.27145 300.07877 262.20856 304.90625 254.65625 C 309.73373 247.10394 314.53642 240.05668 319.40625 233.40625 C 324.27608 226.75582 329.20507 220.49165 334.3125 214.46875 C 339.41993 208.44585 344.70971 202.66973 350.25 197 C 354.00358 193.15873 357.81836 189.51378 361.59375 186.09375 C 365.36914 182.67372 369.09308 179.48196 372.75 176.5 C 376.40692 173.51804 379.97684 170.7458 383.375 168.21875 C 386.77316 165.6917 390.00089 163.39906 393 161.34375 C 398.99821 157.23314 404.06474 154.09139 407.625 151.96875 C 411.18526 149.84611 413.25 148.75 413.25 148.75 L 413.5 150.5 L 413.5 148.21875 C 413.45649 148.21163 413.41854 148.19459 413.375 148.1875 C 388.1007 157.84114 384.63431 160.37228 361.0625 175.53125 C 274.89115 224.81946 220.65496 342.63955 205.71875 395.6875 C 194.4732 435.62759 189.85783 478.77626 190.75 493.84375 C 199.28323 499.31821 212.22161 504.26352 227.65625 508.6875 z "
     id="path3335" />
  <path
     style="fill:url(#radialGradient2908);fill-opacity:1.0;fill-rule:evenodd;stroke:none;stroke-width:0.94705021px;stroke-linecap:butt;stroke-linejoin:miter;stroke-opacity:1"
     d="M 413.5 148.21875 L 413.5 150.5 L 413.28125 148.875 L 413.5 165 L 411.96875 247.09375 C 415.52005 247.40555 414.60453 247.59235 422.84375 249.5 C 423.56891 250.25778 434.70593 251.57234 464.21875 268.375 C 493.46537 285.02611 522.5466 310.81071 543.40625 345.8125 C 564.2659 380.81427 571.70098 420.40075 573.46875 435.25 C 575.04275 448.47173 574.54249 454.86209 574.40625 456.3125 L 669.375 476.96875 C 669.36852 476.80564 669.37623 476.72927 669.375 476.34375 C 669.28124 470.05311 672.83225 462.06265 665.71875 423.53125 C 657.6828 380.00297 647.94631 350.44155 622.90625 307.34375 C 588.08364 247.40868 549.35873 215.24214 505.90625 187 C 473.97393 168.87861 449.05623 154.03656 413.5 148.21875 z "
     id="path2900" />
  <path
     style="fill:#faae53;fill-opacity:1;fill-rule:evenodd;stroke:none;stroke-width:0.94705021px;stroke-linecap:butt;stroke-linejoin:miter;stroke-opacity:1"
     d="M 669.375 476.96875 L 574.40625 456.3125 C 574.38948 456.49104 574.34375 457.53125 574.34375 457.53125 C 540.75619 477.33023 515.83574 485.44486 481.1875 489.6875 C 446.53927 493.93015 407.27815 494.64092 381.46875 491.8125 C 355.65936 488.98407 329.15569 485.79897 321.4375 483.15625 C 321.45099 482.95295 321.45516 482.76509 321.46875 482.5625 C 319.87856 482.10193 311.98037 480.64041 294.40625 474.59375 C 294.40891 474.53162 294.40356 474.46839 294.40625 474.40625 L 229 508 L 228.5625 507.125 C 228.56062 507.17217 228.5 508.25 228.5 508.25 L 227.65625 508.6875 C 281.46256 524.10983 367.2356 533.04422 416.90625 534.40625 C 476.03874 535.07593 533.7345 530.60781 595.34375 511.1875 C 645.87693 495.25857 666.27554 481.34839 668.71875 477.59375 C 669.34774 477.44545 669.38991 477.34391 669.375 476.96875 z "
     id="path2969" />
  <path
     sodipodi:nodetypes="ccccccccsc"
     d="M 411,247 L 411,247 L 411,247 L 411,247 L 411.5,247 C 411.5,247 410.45012,246.65929 392.5,259 C 330.00064,311.11274 297.87422,393.72759 294.4166,474.60199 C 314.66252,481.56793 322.08714,482.45181 321.79357,482.72591 C 325,429.5 332.08119,400.52663 341,368.5 C 363,289.5 411.5,246 411.5,246"
     style="fill:#fae072;fill-opacity:1;fill-rule:evenodd;stroke:none;stroke-width:1px;stroke-linecap:butt;stroke-linejoin:miter;stroke-opacity:1"
     id="path2882" />
  <path
     id="path3366"
     style="fill:#fae072;fill-opacity:1;fill-rule:evenodd;stroke:none;stroke-width:1px;stroke-linecap:butt;stroke-linejoin:miter;stroke-opacity:1"
     d="M 411,247 L 411,247 L 411,247 L 411,247 L 411.5,247 C 411.5,247 410.45012,246.65929 392.5,259 C 330.00064,311.11274 297.87422,393.72759 294.4166,474.60199 C 314.66252,481.56793 322.08714,482.45181 321.79357,482.72591 C 325,429.5 332.08119,400.52663 341,368.5 C 363,289.5 411.5,246 411.5,246"
     sodipodi:nodetypes="ccccccccsc" />
  <path
     style="fill:#a44821;fill-opacity:1;fill-rule:evenodd;stroke:none;stroke-width:2;stroke-linecap:butt;stroke-linejoin:miter;stroke-opacity:1;stroke-miterlimit:4;stroke-dasharray:none"
     d="M 699.5 484.34375 C 696.52798 488.83511 686.98091 501.45642 635.6875 517.625 C 570.63367 538.1311 497.03236 549.55086 434.59375 548.84375 C 351.15716 547.92817 246.43948 541.80467 155.375 499.59375 C 138.04259 491.55969 130.61118 485.29936 129.5 484.34375 L 119.1875 486.3125 C 129.34665 492.44936 142.82557 499.73095 161.9375 508.4375 C 253.27784 550.0481 359.21966 552.77192 442.65625 553.6875 C 505.09485 554.39461 577.69617 540.97485 642.75 520.46875 C 696.10849 503.64923 708.07643 491.12081 710.65625 487.15625 L 711.34375 487.21875 C 711.34375 487.21875 711.34303 486.97926 711.34375 486.9375 L 699.5 484.34375 z "
     id="path2835" />
  <path
     style="fill:none;fill-opacity:1;fill-rule:evenodd;stroke:none;stroke-width:1;stroke-linecap:butt;stroke-linejoin:miter;stroke-opacity:1;stroke-miterlimit:4;stroke-dasharray:none"
     d="M 413.8125 104.0625 L 413.375 104.375 C 404.11239 106.13017 374.97901 112.85213 318.90625 134.375 C 188.87243 184.28697 125.23957 324.23903 113.71875 356.4375 C 102.9251 386.60366 91.9375 464.59374 91.9375 464.59375 C 91.9375 464.59375 98.297898 479.44612 161.9375 508.4375 C 253.27784 550.0481 359.21966 552.77192 442.65625 553.6875 C 505.09485 554.39461 577.69617 540.97485 642.75 520.46875 C 696.10849 503.64923 708.07643 491.12081 710.65625 487.15625 L 711.34375 487.21875 C 711.34375 487.21875 711.35659 486.6739 711.34375 485.8125 C 711.24477 479.17016 710.38621 447.9982 702.875 407.3125 C 694.38972 361.35056 683.05758 330.25483 656.1875 285 C 629.31745 239.74517 585.82405 190.60718 532.4375 156.3125 C 481.79388 123.77984 430.21373 106.34572 413.8125 104.0625 z "
     id="path1909" />
  <path
     style="fill:#8e2600;fill-opacity:1;fill-rule:evenodd;stroke:none;stroke-width:2;stroke-linecap:butt;stroke-linejoin:miter;stroke-opacity:1;stroke-miterlimit:4;stroke-dasharray:none"
     d="M 119.1875 486.3125 L 129.5 484.34375 C 129.41242 484.26843 128.5625 483.65625 128.5625 483.65625 C 125.38052 467.74634 133.65695 422.92313 145.53125 380.75 C 161.30255 324.73613 220.42277 207.03386 319.625 152.75 C 347.87461 137.86345 382.52026 121.39095 413.6875 113.4375 C 413.87207 113.46756 414.06517 113.53155 414.25 113.5625 L 414.40625 104.1875 C 414.2418 104.1627 413.97045 104.08449 413.8125 104.0625 L 413.375 104.375 C 404.11239 106.13017 374.97901 112.85213 318.90625 134.375 C 188.87243 184.28697 125.23957 324.23903 113.71875 356.4375 C 102.9251 386.60366 91.9375 464.59374 91.9375 464.59375 C 91.9375 464.59375 95.518338 472.01463 119.1875 486.3125 z "
     id="path2810" />
  <path
     style="fill:#cb6e4d;fill-opacity:1;fill-rule:evenodd;stroke:none;stroke-width:1px;stroke-linecap:butt;stroke-linejoin:miter;stroke-opacity:1"
     d="M 413.8125,104.0625 L 413.375,104.375 C 404.11239,106.13017 374.97901,112.85213 318.90625,134.375 C 188.87243,184.28697 125.15378,326.34258 113.13296,356.04105 C 101.11215,385.73954 93.351714,464.94729 93.351714,464.9473 C 93.351714,464.9473 95.465544,472.75807 123.25,488.8125 C 121.95198,487.1001 121.375,486.03125 121.375,486.03125 C 119.44302,470.62134 126.04398,420.45909 139.0625,378.625 C 161.0838,307.86113 217.00862,208.90193 313.15625,149.375 C 345.52685,130.85125 379.07515,116.20113 414.375,104.65625 C 416.29641,105.01104 419.11261,105.42763 422.5625,105.90625 C 419.06707,105.01818 416.06983,104.37674 413.8125,104.0625 z "
     id="path3320"
     sodipodi:nodetypes="ccsscccscccc" />
  <path
     style="fill:#516c1b;fill-opacity:1;fill-rule:evenodd;stroke:none;stroke-width:1px;stroke-linecap:butt;stroke-linejoin:miter;stroke-opacity:1"
     d="M 202.8125 524.3125 L 202.4375 525.90625 L 199.78125 525.90625 L 198.75 534.625 C 198.75 534.625 204.81789 535.16706 205.875 537.28125 C 206.93211 539.39546 202.4375 540.71875 202.4375 540.71875 C 202.4375 540.71875 197.6821 540.71795 196.625 543.625 C 195.56789 546.53204 200.0625 552.06251 200.0625 552.0625 L 197.40625 552.59375 C 197.40625 552.59375 201.91703 556.28935 204.03125 557.875 C 206.14547 559.46066 221.46874 589.875 221.46875 589.875 L 225.4375 598.0625 C 225.4375 598.0625 226.47413 602.55631 227.53125 604.40625 C 228.58835 606.25618 250.28125 621.84375 250.28125 621.84375 L 253.1875 624.5 C 253.1875 624.5 256.60454 626.33139 258.71875 630.03125 C 260.83296 633.73113 261.89196 641.40004 262.15625 643.25 C 262.42052 645.09993 260.59027 647.48225 262.96875 650.125 C 265.34724 652.76776 265.06249 673.37501 265.0625 673.375 L 267.4375 674.15625 L 266.90625 676.28125 L 265.59375 679.1875 C 265.59375 679.1875 269.3125 685.80633 269.3125 687.65625 C 269.3125 689.50619 268.78125 696.90626 268.78125 696.90625 L 267.71875 699.28125 L 273.78125 706.15625 C 273.78125 706.15625 273.79552 708.52509 273.53125 710.375 C 273.26698 712.22494 276.15625 712.21873 276.15625 712.21875 L 275.375 712.5 L 275.625 714.34375 L 279.0625 718.03125 L 278.28125 716.46875 L 276.6875 711.96875 C 276.6875 711.96875 277.49112 711.97142 278.8125 712.5 C 280.13388 713.02855 282.49999 717.49999 282.5 717.5 L 284.09375 719.875 L 284.875 723.0625 L 279.875 721.46875 L 284.09375 724.90625 C 284.09375 724.90625 290.184 728.60724 292.5625 731.25 C 294.94099 733.89277 305.78126 738.37498 305.78125 738.375 C 305.78125 738.375 308.16165 740.50268 309.21875 741.03125 C 310.27586 741.5598 310.53126 739.96876 310.53125 739.96875 L 315.28125 740.5 L 313.96875 739.1875 L 309.21875 736.53125 L 312.125 736.53125 L 312.625 734.15625 L 316.34375 733.09375 L 305.25 727.8125 C 305.25 727.8125 307.09914 725.43751 308.15625 725.4375 C 309.21336 725.4375 313.6875 726.74999 313.6875 726.75 L 311.59375 722.78125 L 316.34375 722.28125 L 317.9375 722 C 317.9375 722 315.27935 720.94908 311.84375 720.15625 C 308.40815 719.36342 308.68749 716.71876 308.6875 716.71875 L 308.6875 715.65625 L 311.59375 718.03125 L 318.96875 718.03125 L 318.71875 716.46875 C 318.71875 716.46875 316.8688 711.97417 318.71875 713.03125 C 320.56869 714.08836 334.56789 714.07948 335.625 714.34375 C 336.6821 714.60803 341.19291 711.43213 342.25 710.375 C 343.30711 709.3179 336.9375 707.71877 336.9375 707.71875 C 336.9375 707.71875 337.48571 705.88391 337.75 704.5625 C 338.01428 703.24111 331.125 702.4375 331.125 702.4375 C 331.125 702.4375 328.21796 698.7438 331.125 700.59375 C 334.03205 702.44368 349.62501 704.81251 349.625 704.8125 C 349.625 704.8125 359.67323 699.00619 359.9375 697.15625 C 360.20177 695.30632 362.07058 692.66513 363.65625 691.34375 C 365.24191 690.02236 364.96874 691.34375 364.96875 691.34375 C 364.96875 691.34375 363.36611 696.88392 364.6875 695.5625 C 366.00888 694.24112 370.00001 688.4375 370 688.4375 L 376.0625 685 L 377.375 673.90625 L 391.125 667.3125 C 391.125 667.3125 395.09026 663.87502 397.46875 663.875 C 399.84724 663.875 411.21874 663.34373 411.21875 663.34375 C 411.21875 663.34375 410.96255 661.48573 412.8125 661.75 C 414.66243 662.01428 416.75271 662.54284 417.28125 661.75 C 417.8098 660.95717 418.0733 658.31057 420.1875 654.875 C 422.30172 651.4394 426.00001 650.65625 426 650.65625 C 426 650.65625 425.5 648.81058 425.5 645.375 C 425.5 641.9394 428.65624 642.46875 428.65625 642.46875 C 428.65625 642.46875 428.39196 641.12581 428.65625 638.21875 C 428.92052 635.31171 430.24999 634.78128 430.25 634.78125 C 430.25 634.78125 429.96606 633.20337 429.4375 627.125 C 428.90894 621.04664 432.09375 618.15626 432.09375 618.15625 L 435 619.46875 L 440.03125 613.65625 L 440.28125 609.9375 C 440.28125 609.9375 445.58486 607.55713 446.90625 606.5 C 448.22763 605.44289 454.02505 596.48381 455.875 593.3125 C 457.72494 590.14118 454.27856 581.40088 453.75 580.34375 C 453.22145 579.28665 450.84456 580.34377 447.9375 580.34375 C 445.03046 580.34375 443.98651 578.49732 441.34375 577.96875 C 438.70098 577.4402 434.47762 571.62227 433.15625 571.09375 C 431.83487 570.5652 428.66515 568.73305 427.34375 568.46875 C 426.02237 568.20448 418.08297 569.00002 415.96875 569 C 413.85453 569 409.61422 565.54556 407.5 565.28125 C 405.38579 565.01698 398.54283 569.25886 397.75 567.9375 C 396.95717 566.61612 400.12501 563.96875 400.125 563.96875 C 400.125 563.96875 399.31598 561.57409 396.9375 560.78125 C 394.55901 559.98842 395.34374 562.12497 395.34375 562.125 L 394.3125 560.53125 C 394.3125 560.53125 387.67942 557.62233 386.09375 557.09375 C 384.50809 556.56519 380.55441 555.78392 378.96875 556.3125 C 377.38309 556.84105 375.80442 559.21256 374.21875 561.0625 C 372.63309 562.91243 370.00001 563.18752 370 563.1875 L 369.71875 561.0625 L 367.59375 560.90625 C 365.62595 561.21346 364.95201 561.97549 364.21875 560.65625 L 362.59375 560.53125 L 360.75 556.5625 C 360.75 556.5625 356.75889 558.42321 355.4375 558.6875 C 354.11612 558.95177 354.66704 555.25885 356.78125 553.9375 C 357.7974 553.3024 358.94505 552.18511 360 551.21875 C 308.87732 548.18357 254.48977 541.22832 202.8125 524.3125 z M 364.21875 560.65625 L 367.59375 560.90625 C 367.98987 560.84441 368.42216 560.78125 368.9375 560.78125 C 372.3731 560.78125 376.31521 555.77043 376.84375 553.65625 C 377.03095 552.90747 376.96439 552.45717 376.5625 552.09375 C 372.22729 551.90003 367.85849 551.65255 363.46875 551.40625 C 363.59309 553.92258 363.17051 558.16063 363.90625 560 C 364.01708 560.27708 364.11558 560.47063 364.21875 560.65625 z "
     id="path1873" />
  <path
     style="fill:#516c1b;fill-opacity:1;fill-rule:evenodd;stroke:none;stroke-width:1px;stroke-linecap:butt;stroke-linejoin:miter;stroke-opacity:1"
     d="M 310.1875 98.875 C 309.91406 98.873047 309.53125 98.9375 309 99.125 C 306.875 99.874999 303.125 101.625 302 102.125 C 300.875 102.625 300.75 103 298.75 104.375 C 296.75 105.75 295.375 106 295.375 106 C 295.375 106 294.125 106.625 294.625 105.5 C 295.125 104.375 297.875 104.5 298.625 103.75 C 299.375 103 300.375 101.875 300.375 101.875 C 300.375 101.875 300.5 101 299 101 C 297.5 101 297.625 101.75 294 102.75 C 290.375 103.75 290.5 102.75 289.125 104.25 C 287.75 105.75 286.25 106.125 285.75 106.875 C 285.25 107.625 286.125 107.875 283.75 108.25 C 281.375 108.625 282.375 108.625 281.25 108.625 C 280.125 108.625 278.625 109.25 279.75 108.625 C 280.875 108 282.875 107.625 281.75 107.5 C 280.625 107.375 283 106.125 278.5 107.125 C 274 108.125 271.125 110 271.125 110 C 271.125 110 268.75 110.75 266 112.375 C 263.25 114 266.625 113.125 261.125 115.25 C 255.625 117.375 251.5 121 251.5 121 C 251.5 121 248.5 122.375 247.5 122.75 C 246.5 123.125 246.25 123 246.25 123 L 244.75 121 L 242.125 124.625 L 248.125 124.75 L 250.5 124.625 C 250.5 124.625 251.5 123.375 252.375 123.375 C 252.96467 123.375 253.65742 123.375 254.3125 123.375 C 255.06667 122.87414 256.125 123.5 256.125 123.5 L 255.25 123.375 C 255.25 123.375 254.62948 123.375 254.3125 123.375 C 254.25238 123.41492 254.18037 123.44463 254.125 123.5 C 253.375 124.25 253.75 124.625 252.375 125.25 C 251 125.875 250.375 125.875 249.5 126.375 C 248.625 126.875 245 126.625 247.875 127.375 C 250.75 128.125 252.375 127.75 252.375 127.75 C 252.375 127.75 252.875 128.125 251.75 129.25 C 250.625 130.375 252.5 129.625 248.25 133.375 C 244 137.125 242.625 140.25 241.5 140.75 C 240.375 141.25 239.75 141.5 237.875 143.5 C 236 145.5 236.5 146.625 236 148.125 C 235.5 149.625 234.375 150.625 234.375 148.75 C 234.375 146.875 236.375 145.875 234 146.875 C 231.625 147.875 232.25 146.875 231.375 148.5 C 230.5 150.125 232.25 150 230.5 150.5 C 228.75 151 228.625 150.875 228.75 151.375 C 228.875 151.875 229.125 152.625 229.125 152.625 C 229.125 152.625 228.5 152.875 227.75 152.625 C 227 152.375 226.25 151.875 226.25 152.375 C 226.25 152.875 227 154.625 226.375 155.625 C 225.75 156.625 226.375 157.125 225.375 157 C 224.375 156.875 224.75 156.75 223.5 156.75 C 222.25 156.75 223.125 155.875 222 156.875 C 220.875 157.875 223.25 159.875 223.25 159.875 C 223.25 159.875 223.5 160.375 222.5 160.375 C 221.5 160.375 220.375 160.375 220.375 160.375 L 218.375 159.625 C 218.375 159.625 219.125 161 218.875 161.75 C 218.625 162.5 219.25 163 217.875 163.75 C 216.5 164.5 219.125 163.375 214.875 165.125 C 210.625 166.875 212.375 169.125 211.625 169.125 C 210.875 169.125 210.25 169.125 210.25 169.125 C 210.25 169.125 210.875 170.375 209.25 171.75 C 207.625 173.125 208.625 174.75 205.625 175.875 C 202.625 177 201.75 178.75 201.75 178.75 L 200.125 180 C 200.125 180 199.75 182.25 199.5 182.75 C 199.25 183.25 198.25 186.125 197.75 187.125 C 197.25 188.125 195.375 192.5 194.875 193.375 C 194.375 194.25 195.375 194 193.625 195.625 C 191.875 197.25 188.875 199 188.875 199 C 188.875 199 188.5 199.5 188.625 199 C 188.75 198.5 188.625 195.25 188.625 195.25 C 188.625 195.25 188.375 195.5 186.375 197 C 184.375 198.5 180.5 202 179.375 203 C 178.25 204 177.125 205.125 174.75 207.625 C 172.375 210.125 171.25 211 168.875 213.25 C 166.5 215.5 163 220.75 163 220.75 C 163 220.75 161.375 225.375 159.125 227.125 C 156.875 228.875 154.25 232 153.75 232.875 C 153.25 233.75 150.375 239.5 149 241.125 C 147.625 242.75 145 246.75 144.5 247.875 C 144 249 143 250.625 141.5 253.5 C 140 256.375 138.125 258.875 138.125 260.75 C 138.125 262.625 137.75 273 137.75 273 L 132.75 284.125 C 132.75 284.125 132.125 289.25 131.25 291 C 130.375 292.75 130.125 294 129.375 295.125 C 128.625 296.25 128.625 299.625 128.625 300.625 C 128.625 301.625 127.875 304.625 127.875 304.625 L 125 306 L 124.25 306.5 C 124.25 306.5 125.625 319.25 125.125 321 C 124.625 322.75 124.25 325 123.375 326 C 122.76713 326.69471 123.18831 328.67395 123.5 329.84375 C 125.472 325.87801 127.65626 321.62868 130.0625 317.125 C 129.88851 317.16554 128.13101 317.55889 128.25 316.25 C 128.375 314.875 128.25 312.25 128.75 311.25 C 129.25 310.25 129.75 307.125 130.25 306.125 C 130.75 305.125 131.75 303.25 132 302.375 C 132.25 301.5 132 301.125 132.125 298.375 C 132.25 295.625 130.875 296 132.375 293.25 C 133.875 290.5 134.875 289.625 135.625 288.25 C 136.375 286.875 137.125 285.5 137.125 285.5 C 137.125 285.5 139.625 287.875 138.5 289.875 C 137.375 291.875 137.375 291.75 135.625 295.625 C 133.875 299.5 133.25 301 133.25 302.375 C 133.25 303.75 133.375 305.875 132.875 306.875 C 132.375 307.875 131.625 311.125 131.625 311.625 C 131.625 311.95735 131.33993 313.39964 131.375 314.65625 C 158.2428 265.03569 210.71538 187.98004 292.40625 146.21875 C 291.77099 146.28055 291.5 146.36481 291.5 145.125 C 291.5 143.375 290.5 142.375 292.625 142.375 C 294.75 142.375 296.125 142.5 296.625 141.625 C 297.125 140.75 297.625 140.5 297.375 139.875 C 297.125 139.25 296.375 139.875 296.375 138.625 C 296.375 137.375 296.375 136.25 297.125 135.5 C 297.875 134.75 299 134.25 299 133.375 C 299 132.5 299.125 131.625 298.375 131.5 C 297.625 131.375 296.75 131.125 296.75 131.125 L 298.375 130.625 C 298.375 130.625 297.625 130.25 296.875 129.875 C 296.125 129.5 295.75 129.625 296.875 129.375 C 298 129.125 298.25 127.875 299.5 127.75 C 300.75 127.625 304.125 128.5 300.625 127 C 297.125 125.5 289.125 125.625 290.75 125.625 C 292.375 125.625 294.5 124.875 295.625 124.875 C 296.71913 124.875 298.58286 125.11202 298.6875 125.125 C 298.53125 125.04688 298.125 124.8125 297.125 124.25 C 295.125 123.125 296 122.75 294.25 122.5 C 292.5 122.25 287.875 124.375 291.375 122.125 C 294.875 119.875 297.75 117.625 299 116.375 C 300.25 115.125 302.625 113.75 304.125 112 C 305.625 110.25 305.75 109.75 307.5 108.625 C 309.25 107.5 312.375 106.125 313 105.875 C 313.625 105.625 314.625 105.5 315 105 C 315.375 104.5 316.25 103.375 315.625 102.875 C 315 102.375 313.375 101.125 312 100.25 C 310.96875 99.593749 311.00781 98.880859 310.1875 98.875 z M 314.5 128.84375 C 314.10376 128.8584 313.73438 129 313.125 129.375 C 311.5 130.375 310.25 130.375 310.375 131.375 C 310.5 132.375 310.5 133.5 310 133.625 C 309.5 133.75 308.875 134.125 308.5 133.5 C 308.125 132.875 308.375 132.125 307.125 132.125 C 305.875 132.125 304 132.625 305 133.375 C 306 134.125 306.625 134.625 307 135.5 C 307.375 136.375 307.25 137.25 307.5 137.75 C 307.625 138 307.98438 138.46875 308.0625 138.8125 C 309.56647 138.15886 311.07147 137.53518 312.59375 136.90625 C 314.2342 135.23627 315.26743 134.14243 315.25 134.125 C 315.25 133.375 314.75 134.375 316 132.875 C 317.25 131.375 321.25 131.125 320.25 130.375 C 319.25 129.625 320.75 129.125 317.75 129.125 C 315.875 129.125 315.1604 128.81934 314.5 128.84375 z M 302.15625 135.5 C 301.94531 135.5 301.67188 135.59375 301.25 135.875 C 300.125 136.625 298.625 136.375 299 137.75 C 299.375 139.125 299.75 139.875 299.25 141 C 299.00431 141.5528 297.89666 142.87458 296.6875 144.0625 C 300.15733 142.36295 303.6768 140.72298 307.25 139.15625 C 307.16416 139.13962 307.10346 139.15259 307 139.125 C 305.125 138.625 305 138.625 304.625 137.375 C 304.25 136.125 304.125 135.75 303.25 135.75 C 302.70312 135.75 302.50781 135.5 302.15625 135.5 z M 276.125 139.75 C 277.0332 139.76758 278.625 140.46875 279.375 140.75 C 280.375 141.125 281.125 140.875 282.5 141 C 283.875 141.125 283.625 141.5 283.875 142.5 C 284.125 143.5 282.875 143.875 282.875 143.875 C 282.875 143.875 279.75 145.875 277.375 146 C 275 146.125 274.625 146.5 271.5 147.375 L 270.875 147 C 270.875 147 272.625 145.125 275 144.125 C 277.375 143.125 277.75 142.75 277.75 142.75 C 277.75 142.75 277.125 142.25 274.625 141.5 C 272.125 140.75 275.125 140.75 275.5 140 C 275.59375 139.8125 275.82227 139.74414 276.125 139.75 z M 262.25 156.125 L 259.875 160.375 C 259.875 160.375 261 160.875 261.625 160.875 C 262.25 160.875 264.375 160.375 264.375 160.375 C 264.375 160.375 264.25 160.875 262.875 161.5 C 261.5 162.125 263.25 162.5 259.75 163.375 C 256.25 164.25 255.75 165 254 165 C 252.25 165 250.75 164.125 250.25 163.875 C 249 162.875 248.75 163.25 248.75 162.375 C 248.75 161.5 252.125 161.375 253 161.375 C 253.875 161.375 255 161.75 256.25 161.125 C 257.5 160.5 257.75 160.25 259 159.5 C 260.25 158.75 262.25 156.125 262.25 156.125 z "
     id="path2409" />
  <path
     style="fill:#516c1b;fill-opacity:1;fill-rule:evenodd;stroke:none;stroke-width:1px;stroke-linecap:butt;stroke-linejoin:miter;stroke-opacity:1"
     d="M 357.44248,556.69802 C 359.38702,556.07931 360.35929,556.60964 360.27091,555.28381 C 360.18252,553.95799 359.5638,552.80894 359.5638,552.80894 L 356.91215,556.52125 L 357.44248,556.69802 z "
     id="path1875" />
  <path
     style="fill:#516c1b;fill-opacity:1;fill-rule:evenodd;stroke:none;stroke-width:1px;stroke-linecap:butt;stroke-linejoin:miter;stroke-opacity:1"
     d="M 665.74104,285.3458 C 665.56426,283.22448 665.29909,282.69415 666.53653,282.69415 C 667.77397,282.69415 668.83463,283.22448 669.98368,282.2522 C 671.13272,281.27993 671.39789,280.39605 671.57467,281.27993 C 671.75144,282.16382 672.54694,282.87092 672.105,283.8432 C 671.66306,284.81547 669.54173,285.87613 667.77397,285.78774 C 666.0062,285.69935 665.56426,285.69935 665.74104,285.3458 z "
     id="path2391" />
  <path
     style="fill:#516c1b;fill-opacity:1;fill-rule:evenodd;stroke:none;stroke-width:1px;stroke-linecap:butt;stroke-linejoin:miter;stroke-opacity:1"
     d="M 680.76705,272.70626 C 682.44643,273.85531 683.59548,275.88824 683.86065,274.20887 C 684.12581,272.52949 684.65614,271.38044 684.2142,269.96622 C 683.77226,268.55201 682.88838,267.1378 682.62321,266.78424 C 682.35805,266.43069 681.73933,266.07714 681.73933,266.07714 L 680.76705,272.70626 z "
     id="path2393" />
  <path
     style="fill:#516c1b;fill-opacity:1;fill-rule:evenodd;stroke:none;stroke-width:1px;stroke-linecap:butt;stroke-linejoin:miter;stroke-opacity:1"
     d="M 664.15005,274.65081 C 665.03393,274.91597 666.09459,275.62308 665.91781,274.38564 C 665.74104,273.1482 665.12232,272.52949 664.76876,272.52949 C 664.41521,272.52949 663.7081,272.52949 664.06166,273.41337 C 664.41521,274.29725 664.32682,274.7392 664.15005,274.65081 z "
     id="path2395" />
  <path
     style="fill:#516c1b;fill-opacity:1;fill-rule:evenodd;stroke:none;stroke-width:1px;stroke-linecap:butt;stroke-linejoin:miter;stroke-opacity:1"
     d="M 670.69078,274.29725 C 671.57467,275.09275 672.72372,275.4463 672.63533,275.00436 C 672.54694,274.56242 672.45855,275.35791 672.37016,274.03209 C 672.28177,272.70626 672.105,272.4411 671.66306,272.4411 C 671.22111,272.4411 670.77917,274.38564 670.69078,274.29725 z "
     id="path2397" />
  <path
     style="fill:#516c1b;fill-opacity:1;fill-rule:evenodd;stroke:none;stroke-width:1px;stroke-linecap:butt;stroke-linejoin:miter;stroke-opacity:1"
     d="M 653.72022,260.50867 C 654.42733,260.77384 655.13443,261.12739 655.13443,260.77384 C 655.13443,260.42028 655.57638,260.50867 654.95766,259.80156 C 654.33894,259.09446 654.42733,258.47574 653.98539,259.00607 C 653.54344,259.5364 653.897,260.59706 653.72022,260.50867 z "
     id="path2399" />
  <path
     style="fill:#747b67;fill-opacity:1;fill-rule:evenodd;stroke:none;stroke-width:1px;stroke-linecap:butt;stroke-linejoin:miter;stroke-opacity:1"
     d="M 383.875,98.124999 C 385.375,97.499999 386.625,96.999999 387.25,96.999999 C 387.875,96.999999 388.25,96.249999 389.375,96.374999 C 390.5,96.499999 392.125,96.624999 392,97.249999 C 391.875,97.874999 391.875,97.499999 391.375,98.624999 C 390.875,99.749999 388.5,99.999999 387.875,100.875 C 387.25,101.75 386,102.25 386.5,102.625 C 387,103 387.875,102.75 389,102.25 C 390.125,101.75 391.375,101 391.375,101 C 391.375,101 391.625,100.625 392.125,101.125 C 392.625,101.625 392.625,102.375 392.625,102.375 L 394.625,102.625 C 394.625,102.625 394.375,100.75 394.5,99.874999 C 394.625,98.999999 395.5,96.249999 395,95.624999 C 394.5,94.999999 394.375,93.874999 394.5,93.374999 C 394.625,92.874999 394.625,91.874999 395.5,91.874999 C 396.375,91.874999 396.625,92.874999 396.75,91.499999 C 396.875,90.124999 397.875,90.624999 396.75,89.874999 C 395.625,89.124999 394.5,88.624999 394.5,88.624999 L 393.625,88.249999 C 393.625,88.249999 391.875,89.249999 391.875,89.749999 C 391.875,90.249999 391.625,92.374999 391.625,92.374999 C 391.625,92.374999 389,93.124999 387.625,94.374999 C 386.25,95.624999 384,98.374999 383.875,98.124999 z "
     id="path2401" />
  <path
     style="fill:#747b67;fill-opacity:1;fill-rule:evenodd;stroke:none;stroke-width:1px;stroke-linecap:butt;stroke-linejoin:miter;stroke-opacity:1"
     d="M 464.30399,103.79613 C 466.33692,104.50324 465.54143,104.14968 468.0163,105.65229 C 470.49118,107.15489 471.99378,106.44778 472.08217,107.86199 C 472.17055,109.27621 471.817,109.54137 471.46345,110.24848 C 471.10989,110.95559 472.25894,112.10464 472.25894,112.10464 C 472.25894,112.10464 473.3196,112.54658 471.02151,112.3698 C 468.72341,112.19302 468.0163,113.25368 467.83952,111.66269 C 467.66275,110.0717 467.75114,109.71815 467.75114,109.09943 C 467.75114,108.48071 468.19308,108.83427 467.39758,107.59683 C 466.60209,106.35939 463.77366,103.70774 463.77366,103.70774 L 464.30399,103.79613 z "
     id="path2403" />
  <path
     style="fill:#747b67;fill-opacity:1;fill-rule:evenodd;stroke:none;stroke-width:1px;stroke-linecap:butt;stroke-linejoin:miter;stroke-opacity:1"
     d="M 486.2243,104.7684 C 487.28496,104.68001 486.66624,103.97291 488.78756,104.68001 C 490.90888,105.38712 493.0302,106.71295 494.44442,108.03877 C 495.85863,109.3646 508.233,113.69563 510.08916,114.49112 C 511.94531,115.28662 519.10477,118.02665 519.81187,118.02665 C 520.51898,118.02665 523.78935,117.58471 524.49646,118.02665 C 525.20356,118.4686 526.88294,119.70603 526.441,120.23636 C 525.99906,120.76669 523.08224,120.58992 521.93319,120.58992 C 520.78415,120.58992 519.54671,120.85508 519.19316,120.85508 C 518.8396,120.85508 504.87424,115.46339 502.31098,114.22596 C 499.74772,112.98852 488.87595,107.24328 487.7269,106.271 C 486.57785,105.29873 486.2243,104.94518 486.2243,104.7684 z "
     id="path2405" />
  <path
     style="fill:#516c1b;fill-opacity:1;fill-rule:evenodd;stroke:none;stroke-width:1px;stroke-linecap:butt;stroke-linejoin:miter;stroke-opacity:1"
     d="M 534.21917,126.06999 C 535.81016,126.06999 536.78244,126.15838 537.22438,126.7771 C 537.66632,127.39582 538.63859,127.83776 537.8431,128.2797 C 537.0476,128.72164 537.22438,129.42875 535.72178,128.81003 C 534.21917,128.19131 533.60046,127.48421 533.60046,127.48421 L 534.7495,126.15838 L 534.21917,126.06999 z "
     id="path2407" />
  <path
     style="fill:#516c1b;fill-opacity:1;fill-rule:evenodd;stroke:none;stroke-width:1px;stroke-linecap:butt;stroke-linejoin:miter;stroke-opacity:1"
     d="M 306.75,129.125 C 308.75,129.375 310.5,129.5 311,129.375 C 311.5,129.25 311.625,128.625 312.5,128.375 C 313.375,128.125 315.625,128.125 317.125,128.125 C 318.625,128.125 320.25,128.375 321.125,128.375 C 322,128.375 322.375,128.125 323.25,127.625 C 324.125,127.125 324.375,127 324.25,125.375 C 324.125,123.75 324.5,122.125 324.5,122.125 C 324.5,122.125 324.75,121.25 322.625,121.5 C 320.5,121.75 321,123.375 318.75,123.375 C 316.5,123.375 313.125,123.375 312.25,124.125 C 311.375,124.875 310.25,126.875 308.75,127.625 C 307.25,128.375 306.75,129.5 306.75,129.125 z "
     id="path2415" />
  <path
     style="fill:#516c1b;fill-opacity:1;fill-rule:evenodd;stroke:none;stroke-width:1px;stroke-linecap:butt;stroke-linejoin:miter;stroke-opacity:1"
     d="M 336 119.125 C 334.375 119.125 334.25 120.375 332.125 122 C 330 123.625 331.25 123.375 331.25 123.375 C 331.25 123.375 333.875 122.125 336.625 121 C 339.375 119.875 339.25 122 341.5 122.125 C 343.75 122.25 342.375 122.375 343.5 123 C 344.625 123.625 339.875 124.5 339.125 124.25 C 338.375 124 337.875 123.25 337.25 122.75 C 336.625 122.25 335.375 123 336.25 125.125 C 337.125 127.25 335.375 126.25 335.375 126.25 C 335.375 126.25 335 126 333.875 124.75 C 332.75 123.5 332 124.375 331 124.5 C 330 124.625 330.875 126.125 331 127.125 L 332.1875 129.375 C 337.00991 127.58799 341.6311 125.89524 346 124.34375 C 346.00286 124.31352 345.997 124.27996 346 124.25 C 346.125 123 343.375 121.875 342.75 121.5 C 342.125 121.125 340.25 119.5 340.25 119.5 C 340.25 119.5 337.625 119.125 336 119.125 z "
     id="path2417" />
  <path
     style="fill:#516c1b;fill-opacity:1;fill-rule:evenodd;stroke:none;stroke-width:1px;stroke-linecap:butt;stroke-linejoin:miter;stroke-opacity:1"
     d="M 190.75,195.75 C 190.75,195.75 193,194.125 193,193.625 C 193,193.125 198,184.125 198,184.125 L 199.125,179.25 L 194.25,186.375 L 189.875,193.5 L 190.75,195.75 z "
     id="path2419" />
  <path
     style="fill:#516c1b;fill-opacity:1;fill-rule:evenodd;stroke:none;stroke-width:1px;stroke-linecap:butt;stroke-linejoin:miter;stroke-opacity:1"
     d="M 206.5,169.375 L 211.125,166.375 L 214.25,164.25 C 214.25,164.25 213.75,162.75 213.25,162.75 C 212.75,162.75 211.125,164 211.125,164 L 206.25,170 L 206.5,169.375 z "
     id="path2421" />
  <path
     style="fill:#516c1b;fill-opacity:1;fill-rule:evenodd;stroke:none;stroke-width:1px;stroke-linecap:butt;stroke-linejoin:miter;stroke-opacity:1"
     d="M 241.25,129.25 L 243.75,128.625 L 246.375,127.75 L 243.25,127.125 L 240.125,128 L 241.25,129.25 z "
     id="path2423" />
  <path
     style="fill:none;fill-opacity:0.75;fill-rule:evenodd;stroke:none;stroke-width:1px;stroke-linecap:butt;stroke-linejoin:miter;stroke-opacity:1"
     d="M 414 115 L 413.9375 113.5 C 413.85494 113.48638 413.77 113.45094 413.6875 113.4375 C 413.67799 113.43993 413.66576 113.43507 413.65625 113.4375 L 413.65625 114.59375 L 414 115 z "
     id="path2862" />
  <path
     style="fill:url(#radialGradient3029);fill-opacity:1.0;fill-rule:evenodd;stroke:none;stroke-width:1px;stroke-linecap:butt;stroke-linejoin:miter;stroke-opacity:1"
     d="M 574.375 457 L 411.34375 421.375 L 322.5 482 L 321.5 482.34375 C 321.48077 482.62917 321.45653 482.86942 321.4375 483.15625 C 329.15569 485.79897 355.65936 488.98407 381.46875 491.8125 C 407.27815 494.64092 446.53927 493.93015 481.1875 489.6875 C 515.83574 485.44486 540.75619 477.33023 574.34375 457.53125 C 574.34375 457.53125 574.37131 457.03395 574.375 457 z "
     id="path2963" />
  <path
     style="fill:url(#radialGradient3037);fill-opacity:1.0;fill-rule:evenodd;stroke:none;stroke-width:1px;stroke-linecap:butt;stroke-linejoin:miter;stroke-opacity:1"
     d="M 412.9375 246.9375 L 411.5 421.25 L 411.34375 421.375 L 574.375 457 C 574.44852 456.32364 575.15202 449.3896 573.46875 435.25 C 571.70098 420.40075 564.2659 380.81427 543.40625 345.8125 C 522.5466 310.81071 492.85657 286.05266 464.21875 268.375 C 436.74407 251.41532 415.31494 247.87253 412.9375 246.9375 z "
     id="path2958" />
  <path
     style="fill:url(#radialGradient3066);fill-opacity:1.0;fill-rule:evenodd;stroke:none;stroke-width:1px;stroke-linecap:butt;stroke-linejoin:miter;stroke-opacity:1"
     d="M 321.5 482.34375 L 322.5 482 L 411.5 421.25 L 412.9375 246.9375 C 412.83685 246.89792 412.2482 246.78078 412.21875 246.75 C 411.49357 245.99221 363 289.5 341 368.5 C 332.12886 400.35546 325.07833 429.2245 321.5 482.34375 z "
     id="path2884" />
  <path
     style="fill:#b12e00;fill-opacity:1;fill-rule:evenodd;stroke:none;stroke-width:1px;stroke-linecap:butt;stroke-linejoin:miter;stroke-opacity:1"
     d="M 161.84375,501.90625 L 190.75,493.40625 C 189.93841,478.06312 194.54973,435.35577 205.71875,395.6875 C 220.65496,342.63955 274.89115,224.81946 361.0625,175.53125 C 382.58414,161.69074 393.08193,155.6478 412.98392,147.82858 C 413.39776,137.18232 413.09914,124.1827 413.06786,114.46431 C 412.43505,114.47212 411.46875,115.03125 409.8125,115.4375 C 408.15625,115.84375 405.88281,116.55469 402.8125,117.75 C 399.74219,118.94531 395.875,120.625 391,123 C 386.125,125.375 379.55469,128.96875 371.90625,133.5625 C 368.08203,135.85938 363.97949,138.41797 359.6875,141.1875 C 355.39551,143.95703 350.92188,146.9375 346.3125,150.125 C 341.70312,153.3125 336.96387,156.69922 332.1875,160.25 C 327.41113,163.80078 322.60547,167.51562 317.8125,171.375 C 313.01953,175.23438 308.25293,179.23047 303.59375,183.34375 C 298.93457,187.45703 294.375,191.6875 290,196 C 285.625,200.3125 281.11914,205.21289 276.5625,210.59375 C 272.00586,215.97461 267.41406,221.82031 262.8125,228 C 258.21094,234.17969 253.60352,240.69727 249.09375,247.40625 C 244.58398,254.11523 240.15625,261.03125 235.875,268 C 231.59375,274.96875 227.44727,282.00977 223.53125,288.96875 C 219.61523,295.92773 215.91406,302.82031 212.5,309.5 C 209.08594,316.17969 205.96289,322.65039 203.1875,328.78125 C 200.41211,334.91211 198,340.6875 196,346 C 192,356.625 188.10156,367.40625 184.4375,378.65625 C 182.60547,384.28125 180.81738,390.03906 179.125,395.9375 C 177.43262,401.83594 175.82812,407.875 174.3125,414.125 C 172.79688,420.375 171.36426,426.82031 170.0625,433.5 C 168.76074,440.17969 167.58203,447.09375 166.53125,454.28125 C 165.48047,461.46875 164.5752,468.91406 163.8125,476.6875 C 163.0498,484.46094 162.4375,492.5625 162,501 L 161.84375,501.90625 z "
     id="path2857"
     sodipodi:nodetypes="ccscccsssssssssssssssssssssssscc" />
  <path
     style="fill:#e76227;fill-opacity:1;fill-rule:evenodd;stroke:none;stroke-width:1px;stroke-linecap:butt;stroke-linejoin:miter;stroke-opacity:1"
     d="M 161.75 502.375 L 162 501 C 162.4375 492.5625 163.0498 484.46094 163.8125 476.6875 C 164.5752 468.91406 165.48047 461.46875 166.53125 454.28125 C 167.58203 447.09375 168.76074 440.17969 170.0625 433.5 C 171.36426 426.82031 172.79688 420.375 174.3125 414.125 C 175.82812 407.875 177.43262 401.83594 179.125 395.9375 C 180.81738 390.03906 182.60547 384.28125 184.4375 378.65625 C 188.10156 367.40625 192 356.625 196 346 C 198 340.6875 200.41211 334.91211 203.1875 328.78125 C 205.96289 322.65039 209.08594 316.17969 212.5 309.5 C 215.91406 302.82031 219.61523 295.92773 223.53125 288.96875 C 227.44727 282.00977 231.59375 274.96875 235.875 268 C 240.15625 261.03125 244.58398 254.11523 249.09375 247.40625 C 253.60352 240.69727 258.21094 234.17969 262.8125 228 C 267.41406 221.82031 272.00586 215.97461 276.5625 210.59375 C 281.11914 205.21289 285.625 200.3125 290 196 C 294.375 191.6875 298.93457 187.45703 303.59375 183.34375 C 308.25293 179.23047 313.01953 175.23438 317.8125 171.375 C 322.60547 167.51562 327.41113 163.80078 332.1875 160.25 C 336.96387 156.69922 341.70312 153.3125 346.3125 150.125 C 350.92188 146.9375 355.39551 143.95703 359.6875 141.1875 C 363.97949 138.41797 368.08203 135.85938 371.90625 133.5625 C 379.55469 128.96875 386.125 125.375 391 123 C 395.875 120.625 399.74219 118.94531 402.8125 117.75 C 405.88281 116.55469 408.15625 115.84375 409.8125 115.4375 C 411.46875 115.03125 412.52344 114.91406 413.15625 114.90625 C 413.78906 114.89844 414 115 414 115 L 413.65625 114.59375 L 413.65625 113.4375 C 382.4964 121.39372 347.86599 137.86799 319.625 152.75 C 220.42277 207.03386 161.30255 324.73613 145.53125 380.75 C 133.65695 422.92313 125.38052 467.74634 128.5625 483.65625 C 128.56249 483.65624 136.67653 490.92649 155.375 499.59375 C 157.48275 500.57075 159.62805 501.43628 161.75 502.375 z "
     id="path3329" />
  <path
     style="fill:none;fill-opacity:0.75;fill-rule:evenodd;stroke:none;stroke-width:1px;stroke-linecap:butt;stroke-linejoin:miter;stroke-opacity:1"
     d="M 730,489 C 728.66667,489 728.66667,489 730,489 z "
     id="path3339" />
  <path
     style="fill:none;fill-opacity:0.75;fill-rule:evenodd;stroke:none;stroke-width:1px;stroke-linecap:butt;stroke-linejoin:miter;stroke-opacity:1"
     d="M 228.5,507.5 C 228.5,507.33333 228.5,507.16667 228.5,507.5 z "
     id="path3347" />
  <path
     style="fill:#516c1b;fill-opacity:1;fill-rule:evenodd;stroke:none;stroke-width:1px;stroke-linecap:butt;stroke-linejoin:miter;stroke-opacity:1"
     d="M 402.15625 79.21875 C 371.75251 79.604298 342.2932 83.963532 314.28125 91.78125 L 315.25 93.75 L 302.75 97.5 L 303.75 98.75 L 316 95.25 C 316 95.25 330.75 91.999999 340 89 C 349.25 86 360.75 84.749999 373 82.25 C 385.25 79.75 405.25 81.249999 411.75 81 C 418.25 80.75 427.25 81.499999 427.25 81.5 L 429.25 83.5 L 441.75 82.5 L 443.25 83 L 452 85.5 L 447.5 86 L 453 87.75 L 453.5 90.25 C 453.5 90.25 450.25 90.999999 449 91 C 447.75 91 450.5 93.999999 450.5 94 L 449.25 95.5 L 450.5 96 L 456.5 95.25 L 457.25 92.5 L 455.75 91.25 L 456 91 L 464 90 L 481.25 96.25 L 488 96 L 494.75 100.5 L 499 100.5 L 501 99 L 502 100.5 L 506.25 102.5 L 501 104 C 501 104 504.75 104 505.75 104 C 506.75 104 508 103.5 508 103.5 L 509.75 102.25 L 510 103.5 L 507.5 105 L 503.25 106 L 507.5 107 L 511.25 107.75 L 516.5 110.5 C 516.5 110.5 519.75 110.5 521 110.5 C 522.25 110.5 523.75 111.5 523.75 111.5 C 523.75 111.5 527.25 111.5 528.75 111.5 C 530.25 111.5 532.75 112.5 532.75 112.5 L 529.75 113.75 L 528.25 115 L 525.75 117 L 526.5 117 C 526.5 117 527.5 117 529.25 116.75 C 531 116.5 532 117.25 532 117.25 L 534.25 119.5 L 538.25 122.5 L 537.5 124.5 C 537.5 124.5 539.25 126 541 128 C 542.75 130 543.25 129.75 543.25 129.75 L 547.5 133 L 549.25 134.75 L 546.5 134.25 L 544 131.75 L 540.75 130.75 L 538.25 132.5 C 538.25 132.5 543.25 135.25 546.25 136.25 C 549.25 137.25 549.25 137.25 549.25 137.25 L 549.75 137.75 L 549.5 138.75 L 551.5 140.5 L 552.5 142.75 C 552.5 142.75 555.5 144.25 557.5 144.75 C 559.5 145.25 559.25 146.25 559.25 146.25 L 555.5 147.5 L 556.5 149 L 560.5 149 L 562 150.25 C 562 150.25 561 151 558.75 152 C 556.5 153 553.25 147.5 553.25 147.5 L 543.5 146.5 L 551 144.5 L 550 142.25 L 549.5 141 L 547.75 140 L 545.25 138.75 L 543 137.5 L 540.5 137.5 L 535.75 137.5 L 534 138 L 533 139 L 528.25 139 L 528.5 140.25 L 524.5 141.75 L 525.75 138.25 L 523 138.25 L 517.75 140 L 518.75 143 L 519 144.25 L 516.9375 146.84375 C 522.08403 149.84784 527.27184 152.99416 532.4375 156.3125 C 535.57289 158.32662 538.68422 160.38728 541.75 162.5 L 541.75 161.25 C 541.75 161.25 541 158.5 542.25 157.5 C 543.5 156.5 544 157.25 547.5 158.25 C 551 159.25 551.5 167.25 551.5 167.25 L 565.5 177.5 L 567 177.5 L 570.5 177.25 L 571.5 170 L 573.75 171 L 576.25 169.75 L 576.25 174 L 577.5 175 L 574.5 175.25 L 573.75 180.75 L 584.75 186.75 L 583.25 188.5 L 578.75 187.75 C 578.75 187.75 584.75 195.75 587.75 197.25 C 590.75 198.75 590.75 199.75 589.25 199.75 C 588.80926 199.75 588.30664 199.84758 587.8125 200 C 611.6333 222.61809 631.95691 247.45216 647.84375 271.6875 L 649.25 271.25 L 649.5 271.25 L 650.25 273 L 651 273 L 652.5 271.5 L 655.5 272.25 L 656.5 272.75 L 656.25 274.25 L 655.75 274.25 C 655.75 274.25 654.25 274.75 653.75 275.75 C 653.25 276.75 655.5 277 655.5 277 L 657 279.5 C 657 279.5 658.5 281 659.5 281.25 C 660.5 281.5 662.5 279.75 662.5 279.75 C 662.5 279.75 660 278.75 659 278.25 C 658 277.75 657.75 276 657.75 276 L 659.5 275.75 L 658 274.75 L 657.75 272.5 L 659.5 272.25 L 658.75 270 L 654.25 269.5 L 652.5 265.25 C 652.5 265.25 651.75 265.25 650.75 265 C 650.14937 264.84984 649.57145 263.3953 649.1875 262.21875 L 648.75 262.25 L 648.75 260.75 C 648.75 260.75 648.93221 261.43644 649.1875 262.21875 L 651.75 262 L 651.75 260.5 L 649.5 258.75 C 649.5 258.75 649.75 256 650.75 255.25 C 651.75 254.5 654.75 255.25 654.75 255.25 L 655.25 250.25 L 657.75 249.25 C 657.75 249.25 658.75 249.25 658.5 251.25 C 658.25 253.25 655.5 255.5 655.5 255.5 L 657.5 261.75 L 660.75 262.5 L 661 263.5 L 663.5 264.5 L 660.75 266.5 L 664.75 267.25 L 664 268.5 L 667.5 269.25 L 668.75 271 L 669.5 271 L 672.5 271 L 675.25 272.25 L 677 269.5 L 674.75 267.25 L 674.75 265.5 L 676.75 265.5 L 679 266 C 679 266 681 265.5 681.25 263.75 C 681.5 262 679 259.5 679 259.5 L 680.5 258.75 C 680.5 258.75 685.75 263.5 688.25 269.25 C 690.75 275 695.75 288.75 695.75 288.75 L 694 290.25 L 690.25 291.25 L 690.5 298.75 C 690.5 298.75 687.25 299.25 685.75 299.5 C 684.25 299.75 679.5 301.5 679.5 301.5 L 679.25 300.25 C 679.25 300.25 678.75 301.75 675.75 301.75 C 672.75 301.75 674.5 300.5 673.25 300.25 C 672 300 670.75 301 669.5 304.75 C 669.41138 305.01585 669.39636 306.45169 669.40625 308.5 C 687.09212 342.07453 695.93625 369.7276 702.875 407.3125 C 710.38621 447.9982 711.24477 479.17016 711.34375 485.8125 C 711.35659 486.6739 711.34375 487.21875 711.34375 487.21875 L 710.65625 487.15625 C 708.78304 490.03492 701.86726 497.44565 677.84375 507.71875 C 677.85136 508.91845 677.76117 510.12943 677.5 511 C 676.75 513.5 676.75 514.5 679.75 517.75 C 682.75 521 686.75 528.5 685.5 530.75 C 684.25 533 686 531.5 687.25 533.25 C 688.5 535 690.5 542.5 688.75 544.75 C 687 547 686.75 546 686.75 548.75 C 686.75 551.5 688.25 552.25 686.5 557.5 C 684.75 562.75 680.75 569.5 679 573.75 C 677.25 578 672 591 671.75 593 C 671.5 595 672.5 609.75 672.5 609.75 L 670 615.75 L 663.5 632.25 L 666.5 639.5 L 669.0625 642.8125 C 716.18755 586.82434 745.76281 515.59977 749.21875 437.59375 C 748.54419 435.46454 747.8671 433.00647 747.75 431.25 C 747.55489 428.32339 749.03482 417.03155 749.21875 407.21875 C 749.04306 403.12865 748.78667 399.05186 748.46875 395 C 748.44968 394.84559 748.45723 394.75156 748.4375 394.59375 C 746.7627 381.19531 742.75 355.75 742.75 355.75 L 743.25 359.5 L 744.25 373.25 L 741.5 371.75 L 741.25 366.5 L 739.75 363 L 737.25 359.5 L 735.5 358.25 C 735.5 358.25 732 348.75 731.75 345.5 C 731.5 342.25 727.5 342.75 727.5 342.75 C 727.5 342.75 723.25 331.25 722.25 329.5 C 721.25 327.75 715.5 325 715.5 325 C 715.5 325 716 320.25 715 319 C 714 317.75 703 305 703 305 L 698 299.5 C 698 299.5 697.75 298 699.25 298 C 700.75 298 703.5 304.25 703.5 304.25 L 705.5 304.25 L 702 296.75 L 704 300 C 704 300 707.25 303.25 709.75 305.25 C 712.25 307.25 715 313.75 715 313.75 C 715 313.75 719.25 317 721.25 318.75 C 723.25 320.5 725.5 329.25 725.5 329.25 L 728.5 332 C 728.5 332 730 335.5 734 340 C 738 344.5 740.5 359.25 740.5 359.25 L 741 357.75 C 741 357.75 740.24904 346.60837 739.03125 337.59375 C 734.13471 318.31033 727.60367 299.67001 719.59375 281.84375 C 719.4664 281.57155 719.30911 281.19679 719.1875 280.9375 C 718.91647 280.33898 718.61811 279.75293 718.34375 279.15625 C 717.0625 276.4375 716.25 274.75 716.25 274.75 C 716.25 274.75 716.22172 274.64239 716.21875 274.625 C 661.02597 159.08979 543.09433 79.218749 406.59375 79.21875 C 405.11471 79.21875 403.63088 79.20005 402.15625 79.21875 z M 640.6875 172.28125 C 640.72106 172.2678 640.76859 172.27616 640.8125 172.28125 C 641.13187 172.31826 641.7389 172.87982 642.84375 174.34375 C 646.37929 179.02833 649.93398 182.02329 650.90625 183.4375 C 651.87854 184.85171 653.28385 186.0723 651.78125 185.71875 C 650.27862 185.3652 640.90625 175.90625 640.90625 175.90625 L 640.5625 175.46875 C 640.79038 174.67118 640.1841 172.48295 640.6875 172.28125 z M 643.375 184.65625 C 644.61244 184.65626 651.31879 190.32506 651.9375 191.5625 C 652.55622 192.79993 653.37148 194.93398 654.34375 195.90625 C 655.31603 196.87852 656.46875 199.4375 656.46875 199.4375 C 656.46874 199.43749 660.62592 203.57323 661.15625 203.75 C 661.68658 203.92678 665.375 204.21875 665.375 204.21875 L 670.25 207.65625 L 671.21875 209.9375 C 671.21873 209.93749 678.10631 217.1224 679.34375 218.625 C 680.58119 220.12761 684.30806 223.54917 684.75 224.875 C 685.19196 226.20082 684.64552 228.96431 684.46875 229.40625 C 684.29197 229.84819 683.41514 230.36963 682.53125 230.28125 C 681.6474 230.19286 681.28569 230.63833 680.84375 229.3125 C 680.40178 227.98667 670.24372 215.59819 669.625 215.15625 C 669.00627 214.71431 660.07766 208.88481 659.8125 208.53125 C 659.54732 208.1777 652.9107 203.86428 652.46875 203.6875 C 652.0268 203.51073 646.5625 193.0723 646.5625 192.71875 C 646.56253 192.3652 643.36427 186.96875 643.1875 186.96875 C 643.18748 185.28937 642.13757 184.65625 643.375 184.65625 z M 641.4375 207.5625 C 641.4375 207.5625 646.5527 212.60539 646.90625 213.3125 C 647.2598 214.01961 648.14107 217.03217 648.40625 217.5625 C 648.67141 218.09283 650.45815 218.08394 653.375 218.4375 C 656.29181 218.79105 662.54472 222.13312 664.3125 223.8125 C 666.08027 225.49188 667.15092 230.17954 667.0625 231.59375 C 666.97411 233.00797 664.41606 234.875 664.0625 234.875 C 663.70894 234.875 660.00263 235.32414 658.5 236.03125 C 656.9974 236.73836 658.57413 242.83042 659.28125 244.15625 C 659.98835 245.48207 657.95175 245.82416 657.15625 246.53125 C 656.36075 247.23836 654.51242 247.70081 652.65625 246.375 C 650.80009 245.04917 642.85077 233.10784 640.90625 229.21875 C 638.96171 225.32966 638.70616 224.5222 637.46875 222.3125 C 636.23132 220.1028 637.82228 220.28829 637.46875 218.34375 C 637.1152 216.39921 638.17772 219.68842 638.53125 220.21875 C 638.88481 220.74908 639.49019 220.64109 639.84375 220.90625 C 640.1973 221.17142 640.90623 220.71874 640.90625 220.71875 L 641.15625 218.96875 C 641.15625 218.96875 642.22504 219.48484 642.84375 219.75 C 643.46247 220.01517 642.85358 220.64738 642.5 221.53125 C 642.14645 222.41513 642.77142 223.81787 643.125 223.90625 C 643.47855 223.99463 644.16787 223.04641 644.875 222.78125 C 645.5821 222.51608 645.86074 223.11076 646.65625 223.90625 C 647.45175 224.70174 647.45985 226.02681 648.34375 226.46875 C 649.22763 226.91069 648.68751 226.12945 648.6875 225.6875 C 648.6875 225.24556 648.6866 223.6437 648.15625 222.40625 C 647.62592 221.16882 648.32322 220.83655 648.5 219.6875 C 648.67677 218.53846 648.58747 217.89017 647.96875 217.625 C 647.35003 217.35984 647.08212 219.13036 646.375 219.21875 C 645.66789 219.30714 644.69637 218.96247 643.8125 218.34375 C 642.92861 217.72503 641.25001 217.46875 641.25 217.46875 C 641.25 217.46875 642.56785 215.78477 642.65625 214.8125 C 642.74464 213.84022 641.7964 209.86152 641.53125 208.09375 L 641.4375 207.5625 z "
     id="path2381" />
  <path
     style="fill:#973d18;fill-opacity:1;fill-rule:evenodd;stroke:none;stroke-width:2;stroke-linecap:butt;stroke-linejoin:miter;stroke-opacity:1;stroke-miterlimit:4;stroke-dasharray:none"
     d="M 699.5 484.34375 L 711.34375 486.9375 C 711.34663 486.77045 711.35402 486.50162 711.34375 485.8125 C 711.24477 479.17016 710.38621 447.9982 702.875 407.3125 C 694.38972 361.35056 683.05758 330.25483 656.1875 285 C 629.31745 239.74517 585.82405 190.60718 532.4375 156.3125 C 482.2816 124.09315 431.31727 106.73774 414.40625 104.1875 L 414.25 113.5625 C 451.73653 119.83998 494.59419 144.31102 528.1875 163.375 C 574.06942 193.19617 612.35543 230.90146 649.125 294.1875 C 675.56506 339.69491 687.32719 370.53807 695.8125 416.5 C 703.32371 457.1857 700.65105 475.6389 700.75 482.28125 C 700.76284 483.14265 700.75003 483.68749 700.75 483.6875 L 700.0625 483.625 C 699.96266 483.77843 699.61965 484.16293 699.5 484.34375 z "
     id="path2826" />
</svg>
