<?xml version="1.0" encoding="UTF-8" standalone="no"?>
<!DOCTYPE svg PUBLIC "-//W3C//DTD SVG 1.0//EN" "http://www.w3.org/TR/2001/REC-SVG-20010904/DTD/svg10.dtd">
<!-- Created with Inkscape (http://www.inkscape.org/) -->
<svg xmlns:svg="http://www.w3.org/2000/svg" xmlns="http://www.w3.org/2000/svg" xmlns:inkscape="http://www.inkscape.org/namespaces/inkscape" version="1.0" width="800" height="710" id="svg2">
  <defs id="defs4">
    <filter id="filter3204">
      <feGaussianBlur id="feGaussianBlur3206" stdDeviation="1.2346161" inkscape:collect="always"/>
    </filter>
  </defs>
  <g id="layer1">
    <path d="M 503.4172,576.35373 L 517.60657,574.13664 C 579.26738,563.5303 634.3063,542.24469 677.68035,513.61013 C 741.07684,471.75725 779.22311,414.95502 779.22303,352.64951 C 779.22303,290.34401 741.07684,233.32007 677.68035,191.46719 C 634.3063,162.83262 579.26738,141.54701 517.60657,130.94067 L 503.4172,128.72358 L 503.4172,114.31251 L 503.4172,62.654351 C 503.45254,57.888498 503.45651,54.1054 503.86062,50.682074 C 504.26474,47.258748 505.20719,43.593209 508.07309,40.705176 C 510.93899,37.817144 514.74897,36.944852 518.2717,36.492708 C 521.79442,36.040564 525.62349,35.862559 530.68739,35.827582 L 581.90213,35.827582 L 581.90213,20.97309 L 271.06634,20.97309 L 271.06634,35.827582 L 322.28108,35.827582 C 327.34499,35.862629 331.17406,36.040564 334.69678,36.492708 C 338.2195,36.944852 342.02949,37.817144 344.89539,40.705176 C 347.76128,43.593209 348.70367,47.258748 349.10785,50.682074 C 349.51204,54.1054 349.51587,57.888498 349.55127,62.654351 L 349.55127,114.97764 L 349.55127,129.167 L 335.36191,131.6058 C 275.31329,142.4337 221.71743,163.45021 179.27888,191.46719 C 115.88243,233.32007 77.736236,290.34401 77.736236,352.64951 C 77.736236,414.95502 115.88243,471.75725 179.27888,513.61013 C 221.71743,541.6271 275.31329,562.64361 335.36191,573.47151 C 395.41052,584.29942 324.17522,572.07649 349.55127,575.91031 L 349.55127,590.09968 L 349.55127,645.74859 C 349.51587,650.51445 349.51204,654.29755 349.10785,657.72087 C 348.70367,661.1442 347.76128,664.80974 344.89539,667.69777 C 342.02949,670.58577 338.2195,671.67977 334.69678,672.13192 C 331.17406,672.58406 327.34499,672.54036 322.28108,672.57534 L 271.06634,672.57534 L 271.06634,687.42983 L 581.90213,687.42983 L 581.90213,672.57534 L 530.68739,672.57534 C 525.62349,672.54036 521.79442,672.58399 518.2717,672.13192 C 514.74897,671.67984 510.93899,670.58577 508.07309,667.69777 C 505.20719,664.80974 504.26474,661.1442 503.86062,657.72087 C 503.45651,654.29755 503.45261,650.51445 503.4172,645.74859 L 503.4172,590.7648 L 503.4172,576.35373 z M 349.55127,557.50848 L 349.55127,542.43228 L 349.55127,162.64504 L 349.55127,147.56884 L 335.36191,153.55497 C 259.51024,188.46252 206.77078,264.54405 206.77078,352.64951 C 206.77078,440.75497 259.51024,516.67872 335.36191,551.52234 L 349.55127,557.50848 z M 503.4172,161.09308 L 503.4172,543.98424 L 503.4172,559.06044 L 517.60657,553.29601 C 595.69335,519.33043 650.41016,442.31715 650.41016,352.64951 C 650.41016,262.98187 595.69335,185.80996 517.60657,151.7813 L 503.4172,146.01687 M 256.87698,6.783724 L 256.87698,13.878407 L 256.87698,42.922265 L 256.87698,50.016947 L 263.97166,50.016947 L 322.28108,50.016947 C 327.28936,50.051569 330.8001,50.187858 332.92311,50.460365 C 333.85975,50.58062 334.21086,50.829147 334.47507,50.903783 C 334.55183,51.174942 334.81221,51.5555 334.91849,52.455745 C 335.15942,54.496246 335.32643,58.093676 335.36191,62.87606 L 335.36191,117.19473 C 272.60043,128.13139 216.416,149.85503 171.51907,179.49491 C 105.3552,223.17474 63.546871,284.52942 63.546871,352.64951 C 63.546871,420.7696 105.3552,481.9025 171.51907,525.5824 C 216.416,555.22236 272.60043,576.94592 335.36191,587.88259 L 335.36191,645.74859 C 335.32643,650.53098 335.15942,654.12834 334.91849,656.16891 C 334.82988,656.9191 334.77291,657.23843 334.69678,657.49916 C 334.47344,657.56621 333.98461,657.80636 332.92311,657.94258 C 330.8001,658.21502 327.06765,658.35138 322.05938,658.386 L 263.97166,658.386 L 256.87698,658.386 L 256.87698,665.48068 L 256.87698,694.52451 L 256.87698,701.61919 L 263.97166,701.61919 L 588.99682,701.61919 L 596.0915,701.61919 L 596.0915,694.52451 L 596.0915,665.48068 L 596.0915,658.386 L 588.99682,658.386 L 530.68739,658.386 C 525.67911,658.35138 522.16838,658.21502 520.04537,657.94258 C 519.09624,657.82076 518.58138,657.5733 518.2717,657.49916 C 518.23431,657.24198 518.1408,656.93804 518.04999,656.16891 C 517.80912,654.12841 517.64204,650.53098 517.60657,645.74859 L 517.60657,588.54771 C 581.98798,577.85113 639.58659,555.85386 685.44016,525.5824 C 751.60407,481.90257 793.41247,420.7696 793.4124,352.64951 C 793.4124,284.52942 751.60407,223.17481 685.44016,179.49491 C 639.58659,149.22339 581.98798,127.22618 517.60657,116.5296 L 517.60657,62.654351 C 517.64204,57.872038 517.80912,54.496246 518.04999,52.455745 C 518.15563,51.561034 518.24268,51.17636 518.2717,50.903783 C 518.58138,50.829643 519.09624,50.582181 520.04537,50.460365 C 522.16838,50.187929 525.67911,50.051569 530.68739,50.016947 L 588.99682,50.016947 L 596.0915,50.016947 L 596.0915,42.922265 L 596.0915,13.878407 L 596.0915,6.783724 L 588.99682,6.783724 L 263.97166,6.783724 L 256.87698,6.783724 z M 517.60657,167.07921 C 587.72524,200.08524 636.2208,270.89535 636.2208,352.64951 C 636.2208,434.40367 587.72524,505.05628 517.60657,537.9981 L 517.60657,167.07921 z M 335.36191,169.07459 L 335.36191,536.00272 C 267.49268,502.2807 220.96015,432.82468 220.96015,352.64951 C 220.96015,272.47435 267.49268,202.86153 335.36191,169.07459 z" id="path3251" style="fill:#bfbfbf;fill-opacity:1;fill-rule:evenodd;stroke:none;stroke-width:2;stroke-linecap:butt;stroke-linejoin:miter;stroke-miterlimit:4;stroke-dasharray:none;stroke-opacity:1"/>
    <path d="M 117.48547,411.46571 C 232.41735,191.37056 214.85666,573.74196 17.399791,617.97163" id="path3281" style="fill:none;fill-rule:evenodd;stroke:#363c87;stroke-width:28.37873077;stroke-linecap:butt;stroke-linejoin:miter;stroke-miterlimit:4;stroke-dasharray:none;stroke-opacity:1"/>
    <path d="M 259.64286,295.71429 A 4.1964288,2.8571429 0 1 1 251.25,295.71429 A 4.1964288,2.8571429 0 1 1 259.64286,295.71429 z" transform="matrix(5.4698295,-7.5870886,7.826913,5.3022268,-3523.3463,649.22392)" id="path3283" style="opacity:1;fill:#363c87;fill-opacity:1;fill-rule:nonzero;stroke:none;stroke-width:4;stroke-linecap:round;stroke-linejoin:miter;stroke-miterlimit:4;stroke-dasharray:none;stroke-opacity:1"/>
    <text x="254.46429" y="386.78571" id="text3261" xml:space="preserve" style="font-size:340.21069336px;font-style:normal;font-variant:normal;font-weight:normal;font-stretch:normal;text-align:start;line-height:100%;writing-mode:lr-tb;text-anchor:start;fill:#000000;fill-opacity:1;stroke:none;stroke-width:1px;stroke-linecap:butt;stroke-linejoin:miter;stroke-opacity:1;font-family:Arial;-inkscape-font-specification:Arial"><tspan x="254.46429" y="386.78571" id="tspan3263"/></text>
    <text x="292.5" y="382.14285" id="text3265" xml:space="preserve" style="font-size:340.21069336px;font-style:normal;font-variant:normal;font-weight:normal;font-stretch:normal;text-align:start;line-height:100%;writing-mode:lr-tb;text-anchor:start;fill:#000000;fill-opacity:1;stroke:none;stroke-width:1px;stroke-linecap:butt;stroke-linejoin:miter;stroke-opacity:1;font-family:Arial;-inkscape-font-specification:Arial"><tspan x="292.5" y="382.14285" id="tspan3267"/></text>
    <path d="M 277.30346,513.66762 L 277.30346,322.28133 L 317.83463,322.28133 C 336.37498,322.28148 351.09088,323.29092 361.98242,325.30958 C 372.87375,327.3286 382.35181,330.76066 390.41653,335.60568 C 398.48105,340.45107 405.54801,346.95618 411.61747,355.12116 C 417.68658,363.28636 422.0515,372.23657 424.71215,381.97179 C 427.37246,391.70717 428.70275,402.90053 428.70289,415.55182 C 428.70275,428.74173 427.28935,440.65289 424.46274,451.28537 C 421.6358,461.91801 417.35399,471.31685 411.61747,479.48191 C 405.8806,487.64703 399.35405,494.10726 392.03782,498.86273 C 384.72125,503.61827 374.57815,507.47649 361.60824,510.43743 C 352.4627,512.5909 340.4073,513.66762 325.44199,513.66762 L 277.30346,513.66762 z M 313.09559,351.62181 L 313.09559,483.65416 C 316.25492,484.0131 319.37267,484.19256 322.44895,484.19249 C 332.17635,484.19256 341.15553,483.07095 349.38655,480.8278 C 355.45574,479.21274 360.69365,476.9247 365.10016,473.96368 C 369.50653,471.0028 373.74674,466.87536 377.82073,461.58148 C 381.89451,456.28768 385.13696,449.82738 387.5482,442.20058 C 389.95917,434.57393 391.16469,426.31911 391.16483,417.43611 C 391.16469,408.9122 390.08388,401.03872 387.92232,393.81566 C 385.76055,386.59276 382.55962,380.08765 378.31955,374.30018 C 374.07926,368.51295 369.34024,364.02663 364.10252,360.84118 C 358.86454,357.6561 352.52505,355.30077 345.08405,353.77527 C 337.64285,352.25005 326.98003,351.53226 313.09559,351.62181 L 313.09559,351.62181 z M 458.63359,513.66762 L 458.63359,322.28133 L 497.66817,322.28133 C 512.8829,322.28148 522.90137,322.59553 527.72358,323.22341 C 536.28698,324.47975 543.43712,326.58832 549.17392,329.54912 C 554.91051,332.5103 560.0029,336.57038 564.45107,341.72952 C 568.89896,346.88889 572.28694,352.78845 574.615,359.428 C 576.94286,366.06791 578.10678,373.24601 578.10692,380.96235 C 578.10678,389.57619 576.69338,397.42727 573.86677,404.51552 C 571.03983,411.60398 567.31926,417.72783 562.70507,422.88698 C 558.09068,428.04634 552.9983,431.94944 547.42799,434.59626 C 541.85742,437.24324 535.28935,439.19482 527.72358,440.45094 C 523.15077,441.16881 517.16464,441.43798 509.76523,441.25844 L 494.67514,440.98927 L 494.67514,513.66762 L 458.63359,513.66762 z M 494.67514,351.62181 L 494.67514,411.24498 C 498.4164,411.33483 500.91062,411.37971 502.15779,411.37956 C 510.88749,411.37971 517.53882,410.61703 522.11162,409.09152 C 524.93829,408.01494 527.82745,406.33259 530.77903,404.04441 C 533.73041,401.75651 536.14151,398.75068 538.01228,395.02697 C 539.88285,391.30342 540.81819,386.57035 540.81827,380.82777 C 540.81819,372.0347 537.80433,364.87901 531.77674,359.36071 C 525.74894,353.8427 516.04223,351.08363 502.65668,351.08348 C 500.4118,351.08363 497.75128,351.2631 494.67514,351.62181 L 494.67514,351.62181 z M 745.09527,327.93407 L 742.72572,362.38895 C 737.65401,359.51792 730.42077,356.89342 721.02599,354.51547 C 711.631,352.13788 703.31688,350.94904 696.08371,350.9489 C 684.36079,350.94904 673.63562,353.64083 663.90829,359.02425 C 654.18068,364.40798 646.80196,372.23657 641.772,382.51012 C 636.74197,392.7839 634.22692,404.51559 634.22699,417.70528 C 634.22692,431.07458 636.80433,442.87356 641.95906,453.10231 C 647.11373,463.3312 654.53403,470.93551 664.22005,475.91526 C 673.90586,480.89509 683.90349,483.385 694.21313,483.385 C 697.45547,483.385 701.30071,483.04855 705.74887,482.37557 C 710.19674,481.70266 713.54323,480.96238 715.78813,480.15482 L 715.78813,433.58682 L 678.25001,433.58682 L 678.25001,402.90046 L 749.8343,402.90046 L 749.8343,505.05387 C 740.52239,508.37375 730.39998,510.90855 719.46715,512.65818 C 708.53396,514.40782 698.53627,515.28268 689.47407,515.28268 C 676.50402,515.28268 664.28233,513.33117 652.80893,509.42807 C 641.33547,505.52498 631.27541,499.26655 622.62883,490.65279 C 613.98217,482.03911 607.35168,471.45144 602.73742,458.8897 C 598.1231,446.32803 595.81593,432.55506 595.81593,417.5707 C 595.81593,398.63858 599.55726,381.92705 607.03992,367.43606 C 614.52258,352.94544 626.12074,341.41562 641.83435,332.84661 C 657.5479,324.27787 675.71414,319.99344 696.33323,319.9933 C 714.04198,319.99344 730.29604,322.64041 745.09527,327.93407 L 745.09527,327.93407 z" id="text3304" style="font-size:37.39860153px;font-style:normal;font-variant:normal;font-weight:bold;font-stretch:normal;text-align:start;line-height:100%;writing-mode:lr-tb;text-anchor:start;fill:#363c87;fill-opacity:1;stroke:none;stroke-width:1px;stroke-linecap:butt;stroke-linejoin:miter;stroke-opacity:1;font-family:Frutiger Bold;-inkscape-font-specification:'Frutiger Bold, Bold'"/>
  </g>
</svg>